<?xml version="1.0" encoding="UTF-8"?>
<svg width="102px" height="40px" viewBox="0 0 102 40" version="1.1" xmlns="http://www.w3.org/2000/svg" xmlns:xlink="http://www.w3.org/1999/xlink">
    <!-- Generator: Sketch 48.2 (47327) - http://www.bohemiancoding.com/sketch -->
    <title>Pernod_Ricard_logo-backoffice</title>
    <desc>Created with Sketch.</desc>
    <defs></defs>
    <g id="iPhone" stroke="none" stroke-width="1" fill="none" fill-rule="evenodd">
        <g id="Pernod_Ricard_logo-backoffice" fill="#FFFFFF" fill-rule="nonzero">
            <path d="M48.7689394,0 C47.5598491,0.185606061 46.3992485,0.536363636 45.3219697,1.02272727 C45.3219715,1.02272727 46.5795455,3.44848485 47.2159091,5.07575758 C48.13788,7.43181818 48.3712121,9.65909091 48.3712121,9.65909091 C48.9772739,9.33939394 49.7742424,9.09318182 50.4924242,9.03409091 C50.4924224,9.03409091 50.5196909,6.76818182 50.0189394,4.43181818 C49.4333309,1.70227279 48.7689394,0 48.7689394,0 Z M52.7272727,0 C52.7272727,0 52.0621206,1.70227279 51.4772727,4.43181818 C50.9765152,6.76818182 51.0227291,9.03409091 51.0227273,9.03409091 C51.7416727,9.09318182 52.5204558,9.33939394 53.125,9.65909091 C53.125,9.65909091 53.3583339,7.43181818 54.280303,5.07575758 C54.9166606,3.44848485 56.1742406,1.02272727 56.1742424,1.02272727 C55.0977273,0.536363636 53.9363648,0.185606061 52.7272727,0 Z M42.6893939,2.61363636 C41.7181885,3.36287891 40.8431818,4.22575758 40.1136364,5.20833333 C40.1136358,5.20833315 42.1462121,6.09772727 43.6363636,7.53787879 C45.6742352,9.51060606 46.4015152,11.4962121 46.4015152,11.4962121 C46.778037,10.8909085 47.2871212,10.3643939 47.8787879,9.96212121 C47.8787873,9.96212121 47.1159091,7.57045455 45.8901515,5.81439394 C44.6636358,4.05833327 42.6893939,2.61363636 42.6893939,2.61363636 Z M58.8257576,2.61363636 C58.8257576,2.61363636 56.83334,4.05833327 55.6060606,5.81439394 C54.3787939,7.57045455 53.6174261,9.96212121 53.6174242,9.96212121 C54.2090848,10.3643939 54.7181806,10.8909085 55.094697,11.4962121 C55.094697,11.4962121 55.8196921,9.51060606 57.8598485,7.53787879 C59.3477273,6.09772727 61.3825758,5.20833315 61.3825758,5.20833333 C60.6537818,4.22575758 59.7954624,3.36287891 58.8257576,2.61363636 Z M38.7310606,7.55681818 C38.225757,8.6530303 37.875,9.82727273 37.6893939,11.0606061 C37.6893939,11.0606061 39.5030303,10.8651515 42.1022727,11.8560606 C44.2386418,12.6719697 45.6439394,14.0151515 45.6439394,14.0151515 C45.6598564,13.3568182 45.8325758,12.6939394 46.0795455,12.1212121 C46.0795448,12.1212127 45.3909152,10.8348485 43.3712121,9.45075758 C41.2022776,7.96363636 38.7310606,7.55681818 38.7310606,7.55681818 Z M62.7651515,7.55681818 C62.7651515,7.55681818 60.2947036,7.96363636 58.125,9.45075758 C56.1068242,10.8348485 55.4166679,12.1212127 55.4166667,12.1212121 C55.6643939,12.6939394 55.83712,13.3568182 55.8522727,14.0151515 C55.8522727,14.0151515 57.2553018,12.6719697 59.3939394,11.8560606 C61.9931879,10.8651515 63.8068182,11.0606061 63.8068182,11.0606061 C63.6204545,9.82727273 63.2712182,8.6530303 62.7651515,7.55681818 Z" id="path4850"></path>
            <path d="M39.9431818,13.1060606 C38.4011012,13.0992424 37.5378788,13.3901515 37.5378788,13.3901515 C37.57046,14.6371218 37.7856061,15.8325758 38.1439394,16.969697 C38.1439388,16.969697 39.8333333,16.1219697 41.8939394,16.0227273 C44.4916667,15.8977273 46.2689394,16.5909091 46.2689394,16.5909091 C45.9469685,16.0098491 45.7522667,15.3492424 45.6818182,14.6590909 C45.6818194,14.6590909 43.6068242,13.4931818 41.7045455,13.2386364 C41.0464018,13.1503788 40.4572085,13.1083333 39.9431818,13.1060606 Z M61.5530303,13.1060606 C61.0389697,13.1083333 60.4496206,13.1503788 59.7916667,13.2386364 C57.8901515,13.4931818 55.8333327,14.6590909 55.8333333,14.6590909 C55.7621212,15.3492424 55.5507582,16.0098491 55.2272727,16.5909091 C55.2272727,16.5909091 57.0045467,15.8977273 59.6022727,16.0227273 C61.6628848,16.1219697 63.3522727,16.969697 63.3522727,16.969697 C63.7106121,15.8325758 63.9250061,14.6371218 63.9583333,13.3901515 C63.9583333,13.3901515 63.0952182,13.0992424 61.5530303,13.1060606 Z M44.0340909,17.1401515 C43.5743242,17.1641218 43.1073879,17.2225376 42.6704545,17.3106061 C40.0234836,17.8446964 38.8636364,18.7689394 38.8636364,18.7689394 C39.4007558,19.8734848 40.0780364,20.8924242 40.8901515,21.7992424 C40.8901503,21.799243 41.9803091,20.7643939 43.8636364,19.8674242 C46.4113715,18.6537885 48.9962121,18.9015152 48.9962121,18.9015152 C48.0840903,18.5621206 47.2856,17.9856061 46.7045455,17.2348485 C46.7045448,17.2348485 45.4133903,17.0682412 44.0340909,17.1401515 Z M56.155303,17.1401515 C55.3666667,17.1642994 54.7916673,17.2348485 54.7916667,17.2348485 C54.2098424,17.9856061 53.4310673,18.5621206 52.5189394,18.9015152 C52.5189394,18.9015152 55.0856042,18.6537885 57.6325758,19.8674242 C59.5151515,20.7643939 60.6060606,21.799243 60.6060606,21.7992424 C61.4204485,20.8924242 62.1136364,19.8734848 62.6515152,18.7689394 C62.6515152,18.7689394 61.4727273,17.8446964 58.8257576,17.3106061 C57.9515152,17.1344697 56.9439394,17.1160036 56.155303,17.1401515 Z M50.7575758,19.1287879 C45.3704624,19.1287873 42.2159091,23.0871212 42.2159091,23.0871212 C43.171217,23.8931806 44.2394,24.5606061 45.3977273,25.0757576 C45.3977279,25.0757576 47.0401576,21.8560606 50.7575758,21.8560606 C54.4750079,21.8560606 56.0984848,25.0757576 56.0984848,25.0757576 C57.2575745,24.5606061 58.3272667,23.8931818 59.280303,23.0871212 C59.2803055,23.08712 56.1454606,19.1287879 50.7575758,19.1287879 Z M0,28.7310606 L0,29.7159091 L1.34469697,29.7159091 L1.34469697,38.2765152 L0,38.2765152 L0,39.2424242 L3.73106061,39.2424242 L3.73106061,38.2765152 L2.40530303,38.2765152 L2.40530303,35.094697 L4.39393939,35.094697 C5.38030297,35.0946958 6.18030303,34.9628788 6.93181818,34.2424242 C7.59393939,33.6098491 7.93560606,32.7863636 7.93560606,31.875 C7.93560606,30.9181824 7.50757576,29.9863636 6.74242424,29.4128788 C6.02121224,28.8833333 5.16742424,28.7310606 4.29924242,28.7310606 L0,28.7310606 Z M46.875,28.7310606 L46.875,29.6401515 L48.1628788,29.6401515 L48.1628788,33.2954545 C47.5454521,32.0893933 46.3007515,31.3825758 44.9621212,31.3825758 C42.8143867,31.3825764 41.0227273,33.2318182 41.0227273,35.3787879 C41.0227285,36.1439406 41.2878788,36.9810606 41.6856061,37.6136364 C42.3621279,38.6863642 43.7787879,39.4507576 45,39.4507576 C46.3378806,39.4507588 47.5007576,38.7613636 48.1628788,37.6136364 L48.1628788,39.2424242 L50.4356061,39.2424242 L50.4356061,38.3333333 L49.1287879,38.3333333 L49.1287879,28.7310606 L46.875,28.7310606 Z M55.2840909,28.7310606 L55.2840909,29.7159091 L56.6287879,29.7159091 L56.6287879,38.2765152 L55.2840909,38.2765152 L55.2840909,39.2424242 L58.9393939,39.2424242 L58.9393939,38.2765152 L57.6893939,38.2765152 L57.6893939,29.7159091 L59.7537879,29.7159091 C60.5484848,29.7159091 61.2189455,29.730303 61.8371212,30.3030303 C62.3666727,30.7871212 62.6325758,31.48106 62.6325758,32.2159091 C62.6325758,33.0704545 62.1946909,33.8613636 61.4583333,34.3181818 C60.7681818,34.7439394 59.9992345,34.7159079 59.2045455,34.7159091 L58.8068182,34.7159091 L62.0643939,39.2424242 L64.1098485,39.2424242 L64.1098485,38.2765152 L62.7083333,38.2765152 L60.5113636,35.3977273 C62.3060667,35.3977273 63.6931818,33.9386364 63.6931818,32.1590909 C63.6931818,31.1287879 63.2931818,30.1840921 62.5,29.5075758 C61.6916667,28.8159091 60.8431818,28.7310606 59.8295455,28.7310606 L55.2840909,28.7310606 Z M66.2878788,28.7310606 L66.2878788,30.2462121 L67.2537879,30.2462121 L67.2537879,28.7310606 L66.2878788,28.7310606 Z M97.9166667,28.7310606 L97.9166667,29.6401515 L99.2045455,29.6401515 L99.2045455,33.2954545 C98.5871212,32.0893933 97.3416727,31.3825758 96.0037879,31.3825758 C93.8568182,31.3825764 92.0454545,33.2318182 92.0454545,35.3787879 C92.0454545,36.1439406 92.330303,36.9810606 92.7272727,37.6136364 C93.4045394,38.6863642 94.8204545,39.4507576 96.0416667,39.4507576 C97.3795394,39.4507588 98.5424303,38.7613636 99.2045455,37.6136364 L99.2045455,39.2424242 L101.458333,39.2424242 L101.458333,38.3333333 L100.170455,38.3333333 L100.170455,28.7310606 L97.9166667,28.7310606 Z M2.40530303,29.7159091 L4.28030303,29.7159091 C4.95757582,29.7159085 5.4825697,29.7810606 6.04166667,30.2083333 C6.55605455,30.6181824 6.875,31.2507576 6.875,31.9128788 C6.875,32.5893933 6.60909697,33.1954545 6.07954545,33.6363636 C5.55000636,34.0772727 4.9613697,34.1287879 4.29924242,34.1287879 L2.40530303,34.1287879 L2.40530303,29.7159091 Z M12.0454545,31.3825758 C9.81060545,31.3825764 8.06818182,33.2636364 8.06818182,35.4545455 C8.06818182,37.661363 9.88181818,39.4507576 12.1022727,39.4507576 C13.6916673,39.4507588 15.130297,38.525 15.7765152,37.0833333 L14.7537879,37.0833333 C14.1946909,38.0545455 13.1840848,38.5795455 12.0643939,38.5795455 C10.4765152,38.5795455 9.12197576,37.3257576 9.03409091,35.7386364 L16.0984848,35.7386364 L16.0984848,35.4356061 C16.0984855,33.1553042 14.3401515,31.3825758 12.0454545,31.3825758 Z M27.6515152,31.3825758 C26.5931879,31.3825758 25.5424182,31.9045461 25.0568182,32.8598485 L25.0568182,31.5151515 L22.7840909,31.5151515 L22.7840909,32.4242424 L24.0909091,32.4242424 L24.0909091,38.3333333 L22.7840909,38.3333333 L22.7840909,39.2424242 L26.344697,39.2424242 L26.344697,38.3333333 L25.0568182,38.3333333 L25.0568182,35.1136364 C25.0568182,34.3931818 25.068183,33.7325758 25.5681818,33.1439394 C26.0098485,32.6280303 26.7106006,32.3484836 27.3863636,32.3484848 C28.1227273,32.3484848 28.9825697,32.5560606 29.3939394,33.2765152 C29.7469697,33.880303 29.7727267,34.5553018 29.7727273,35.2462121 L29.7727273,38.3333333 L28.4659091,38.3333333 L28.4659091,39.2424242 L32.0265152,39.2424242 L32.0265152,38.3333333 L30.7386364,38.3333333 L30.7386364,34.8863636 C30.7386364,33.944697 30.4939388,33.2431824 30.3030303,32.8598485 C29.8022727,31.844697 28.5196964,31.3825764 27.6515152,31.3825758 Z M36.1931818,31.3825758 C33.9416667,31.3825764 32.1212121,33.1856061 32.1212121,35.4356061 C32.1212127,37.6416667 33.9189394,39.4507576 36.155303,39.4507576 C38.4196982,39.4507588 40.2083333,37.6106061 40.2083333,35.3598485 C40.2083327,33.1833333 38.3840909,31.3825758 36.1931818,31.3825758 Z M72.3295455,31.3825758 C71.2121212,31.3825758 70.2424303,31.8643933 69.5075758,32.6136364 C68.8007576,33.3348485 68.3712121,34.350757 68.3712121,35.4545455 C68.3712121,37.6174242 70.1757515,39.4507588 72.3674242,39.4507576 C74.0583273,39.4507576 75.6204606,38.4219691 76.1931818,36.8181818 L75.1136364,36.8181818 C74.6583273,37.8469697 73.5643939,38.4659085 72.4621212,38.4659091 C70.7257576,38.4659091 69.3560606,37.1560618 69.3560606,35.4356061 C69.3560606,33.7287879 70.6787879,32.3484842 72.3863636,32.3484848 C73.4606061,32.3484848 74.4787818,32.9325758 75.0378788,33.844697 L75.9469697,33.844697 L75.9469697,31.5151515 L75.0378788,31.5151515 L75.0378788,32.6136364 C74.3325758,31.819697 73.4189333,31.3825764 72.3295455,31.3825758 Z M80.6060606,31.3825758 C79.209097,31.3825764 77.8856121,32.0833333 77.2537879,33.2007576 C76.9295515,33.7742424 76.6098485,34.2977273 76.6098485,35.4166667 C76.5795394,36.269697 76.8530364,37 77.2348485,37.6325758 C77.9121273,38.7515152 79.1939394,39.4507576 80.6060606,39.4507576 C81.9454545,39.4507588 83.0931758,38.794697 83.7689394,37.6325758 L83.7689394,39.2424242 L86.0037879,39.2424242 L86.0037879,38.3333333 L84.7348485,38.3333333 L84.7348485,32.4242424 L86.0037879,32.4242424 L86.0037879,31.5151515 L83.7689394,31.5151515 L83.7689394,33.2007576 C83.0628788,32.0242424 82.0045455,31.3825758 80.6060606,31.3825758 Z M16.6287879,31.5151515 L16.6287879,32.4242424 L17.9356061,32.4242424 L17.9356061,38.3333333 L16.6287879,38.3333333 L16.6287879,39.2424242 L20.1893939,39.2424242 L20.1893939,38.3333333 L18.9015152,38.3333333 L18.9015152,35.2272727 C18.9015152,33.580303 19.6568182,32.5704558 21.3636364,32.4242424 L21.3636364,31.5151515 C20.2598485,31.5590909 19.2545394,32.0128782 18.9015152,33.0871212 L18.9015152,31.5151515 L16.6287879,31.5151515 Z M65,31.5151515 L65,32.4242424 L66.2878788,32.4242424 L66.2878788,38.3333333 L64.9621212,38.3333333 L64.9621212,39.2424242 L68.5416667,39.2424242 L68.5416667,38.3333333 L67.2537879,38.3333333 L67.2537879,31.5151515 L65,31.5151515 Z M87.0454545,31.5151515 L87.0454545,32.4242424 L88.3522727,32.4242424 L88.3522727,38.3333333 L87.0454545,38.3333333 L87.0454545,39.2424242 L90.6060606,39.2424242 L90.6060606,38.3333333 L89.3181818,38.3333333 L89.3181818,35.2272727 C89.3181818,33.580303 90.0742424,32.5704558 91.780303,32.4242424 L91.780303,31.5151515 C90.6765152,31.5590909 89.6712121,32.0128782 89.3181818,33.0871212 L89.3181818,31.5151515 L87.0454545,31.5151515 Z M12.0265152,32.2727273 C13.5999994,32.2727273 14.9681758,33.369697 15.1893939,34.9431818 L9.03409091,34.9431818 C9.21060606,33.4871212 10.540903,32.2727273 12.0265152,32.2727273 Z M45.1136364,32.3106061 C46.8045376,32.3106067 48.2007576,33.6719697 48.2007576,35.3787879 C48.2007588,37.1143952 46.8492364,38.5227273 45.1136364,38.5227273 C43.4219679,38.5227279 41.9886364,37.1416667 41.9886364,35.4356061 C41.9886376,33.7143952 43.3780303,32.3106061 45.1136364,32.3106061 Z M96.1363636,32.3106061 C97.8272727,32.3106067 99.2234848,33.6719697 99.2234848,35.3787879 C99.2234848,37.1143952 97.8719697,38.5227273 96.1363636,38.5227273 C94.4439394,38.5227279 93.030303,37.1416667 93.030303,35.4356061 C93.030297,33.7143952 94.4,32.3106061 96.1363636,32.3106061 Z M35.8522727,32.3484848 C35.9561212,32.3380509 36.0676133,32.3484848 36.1742424,32.3484848 C37.8802976,32.3484836 39.2234848,33.7393939 39.2234848,35.4166667 C39.2234836,37.1083333 37.8613636,38.4848485 36.155303,38.4848485 C34.4340861,38.4848479 33.0871212,37.075 33.0871212,35.3977273 C33.0871218,33.8125006 34.2945448,32.5049903 35.8522727,32.3484848 Z M80.3787879,32.3484848 C80.4828182,32.3379418 80.5941758,32.3484848 80.7007576,32.3484848 C82.3916606,32.3484836 83.7689394,33.7068182 83.7689394,35.3977273 C83.7689394,37.11894 82.4136364,38.5037879 80.6628788,38.5037879 C78.9719576,38.5037873 77.5757576,37.0984848 77.5757576,35.4356061 C77.5757576,33.8361739 78.8183576,32.5066267 80.3787879,32.3484848 Z" id="path4862"></path>
        </g>
    </g>
</svg>