<?xml version="1.0" encoding="utf-8"?>
<!-- Generator: Adobe Illustrator 16.0.4, SVG Export Plug-In . SVG Version: 6.00 Build 0)  -->
<!DOCTYPE svg PUBLIC "-//W3C//DTD SVG 1.1//EN" "http://www.w3.org/Graphics/SVG/1.1/DTD/svg11.dtd">
<svg version="1.1" id="Capa_1" xmlns="http://www.w3.org/2000/svg" xmlns:xlink="http://www.w3.org/1999/xlink" x="0px" y="0px"
	 width="357.771px" height="328.445px" viewBox="0 0 357.771 328.445" enable-background="new 0 0 357.771 328.445"
	 xml:space="preserve">
<g>
	<path fill="#FFFFFF" d="M91.506,249.154c0-20.873,14.684-37.984,38.834-37.984c24.393,0,39.078,17.111,39.078,37.984
		s-14.686,37.984-39.078,37.984C106.189,287.138,91.506,270.027,91.506,249.154z M151.213,249.154
		c0-12.621-9.102-20.994-20.873-20.994c-11.527,0-20.631,8.373-20.631,20.994s9.104,20.994,20.631,20.994
		C142.111,270.148,151.213,261.775,151.213,249.154z"/>
	<path fill="#FFFFFF" d="M249.637,285.562h-4.004l-47.086-40.17v40.17h-17.475v-72.814h4.004l47.088,38.592v-38.471h17.473V285.562z
		"/>
	<path fill="#FFFFFF" d="M293.936,212.748h2.912l38.23,72.814h-19.904l-4.004-8.617h-31.676l-3.883,8.617H255.83L293.936,212.748z
		 M295.756,243.572h-0.969l-8.98,19.053l-1.094,1.941h21.117l-1.094-1.941L295.756,243.572z"/>
	<polygon fill="#FFFFFF" points="40.291,235.076 40.291,212.748 22.695,212.748 22.695,252.953 	"/>
	<path fill="#FFFFFF" d="M91.504,212.748h-21.48l-17.596,18.527l0.016,0.014l-3.494,3.648l-8.658,9.119v-0.07l-17.596,18.393v23.184
		h17.596V268.57l10.922-11.648c6.309,9.586,12.498,19.174,18.932,28.641h21.359v-1.701l-28.035-39.805l28.035-29.732V212.748z"/>
	<g>
		
			<linearGradient id="SVGID_1_" gradientUnits="userSpaceOnUse" x1="-7299.9365" y1="-2170.2983" x2="-7182.54" y2="-2102.2925" gradientTransform="matrix(-0.9547 -0.5531 -0.5531 0.9548 -7914.9658 -1874.2546)">
			<stop  offset="0" style="stop-color:#FFAD2F"/>
			<stop  offset="0.2268" style="stop-color:#FF941C"/>
			<stop  offset="0.4633" style="stop-color:#FF820E"/>
			<stop  offset="0.7139" style="stop-color:#FF7706"/>
			<stop  offset="1" style="stop-color:#FF7403"/>
		</linearGradient>
		<polygon fill="url(#SVGID_1_)" points="172.547,164.222 235.893,127.766 235.992,54.688 172.752,18.059 109.408,54.502 
			109.312,127.588 		"/>
		<polygon fill="#FFFFFF" points="159.738,76.899 159.738,54.518 142.1,54.518 142.1,94.819 		"/>
		<path fill="#FFFFFF" d="M211.072,54.518h-21.529L171.906,73.09l0.014,0.012l-3.5,3.658l-8.682,9.141v-0.068L142.1,104.268v23.238
			h17.639v-17.033l10.949-11.678c6.324,9.611,12.527,19.221,18.977,28.711h21.408v-1.703l-28.1-39.902l28.1-29.801V54.518z"/>
	</g>
</g>
</svg>
