<?xml version="1.0" encoding="UTF-8" standalone="no"?>
<svg width="77px" height="27px" viewBox="0 0 77 27" version="1.1" xmlns="http://www.w3.org/2000/svg" xmlns:xlink="http://www.w3.org/1999/xlink">
    <defs>
        <path d="M15,5 L15,0 L0,0 L0,5 L5,5 L5,20 L0,20 L0,25 L15,25 L15,20 L10,20 L10,5 L15,5 Z M20,0 L20,25 L25,25 L25,5 L30,5 L30,25 L35,25 L35,5 L40,5 L40,25 L45,25 L45,0 L20,0 Z M50,0 L50,25 L55,25 L55,5 L60,5 L60,25 L65,25 L65,5 L70,5 L70,25 L75,25 L75,0 L50,0 Z" id="path-1"></path>
        <filter x="-50%" y="-50%" width="200%" height="200%" filterUnits="objectBoundingBox" id="filter-2">
            <feOffset dx="2" dy="2" in="SourceAlpha" result="shadowOffsetOuter1"></feOffset>
            <feColorMatrix values="0 0 0 0 0   0 0 0 0 0   0 0 0 0 0  0 0 0 0.1 0" type="matrix" in="shadowOffsetOuter1"></feColorMatrix>
        </filter>
    </defs>
    <g id="IMM-desktop" stroke="none" stroke-width="1" fill="none" fill-rule="evenodd">
        <g id="d.dashboard-c-proyecto-actividad" transform="translate(-22.000000, -13.000000)">
            <g id="Group-9">
                <g id="imm-logo-copy" transform="translate(22.000000, 13.000000)">
                    <g id="Combined-Shape">
                        <use fill="black" fill-opacity="1" filter="url(#filter-2)" xlink:href="#path-1"></use>
                        <use fill="#FFFFFF" fill-rule="evenodd" xlink:href="#path-1"></use>
                    </g>
                </g>
            </g>
        </g>
    </g>
</svg>