<?xml version="1.0" encoding="UTF-8" standalone="no"?>
<svg width="221px" height="44px" viewBox="0 0 221 44" version="1.1" xmlns="http://www.w3.org/2000/svg" xmlns:xlink="http://www.w3.org/1999/xlink">
    <defs>
        <path d="M572,215 L572,207 L548,207 L548,215 L556,215 L556,239 L548,239 L548,247 L572,247 L572,239 L564,239 L564,215 L572,215 Z M580,207 L580,247 L588,247 L588,215 L596,215 L596,247 L604,247 L604,215 L612,215 L612,247 L620,247 L620,207 L580,207 Z M628,207 L628,247 L636,247 L636,215 L644,215 L644,247 L652,247 L652,215 L660,215 L660,247 L668,247 L668,207 L628,207 Z M679.078125,217 L679.078125,208.433594 L680.894531,208.433594 L680.894531,217 L679.078125,217 Z M690.650391,217 L688.341797,217 L684.615234,210.519531 L684.5625,210.519531 C684.636719,211.664068 684.673828,212.480466 684.673828,212.96875 L684.673828,217 L683.050781,217 L683.050781,208.433594 L685.341797,208.433594 L689.0625,214.849609 L689.103516,214.849609 C689.044922,213.736323 689.015625,212.949221 689.015625,212.488281 L689.015625,208.433594 L690.650391,208.433594 L690.650391,217 Z M696.111328,217 L694.294922,217 L694.294922,209.945312 L691.96875,209.945312 L691.96875,208.433594 L698.4375,208.433594 L698.4375,209.945312 L696.111328,209.945312 L696.111328,217 Z M704.689453,217 L699.755859,217 L699.755859,208.433594 L704.689453,208.433594 L704.689453,209.921875 L701.572266,209.921875 L701.572266,211.802734 L704.472656,211.802734 L704.472656,213.291016 L701.572266,213.291016 L701.572266,215.5 L704.689453,215.5 L704.689453,217 Z M709.728516,212.189453 L713.126953,212.189453 L713.126953,216.630859 C712.576169,216.810548 712.05762,216.936523 711.571289,217.008789 C711.084959,217.081055 710.587893,217.117188 710.080078,217.117188 C708.787103,217.117188 707.799808,216.737308 707.118164,215.977539 C706.43652,215.21777 706.095703,214.12696 706.095703,212.705078 C706.095703,211.322259 706.491207,210.244144 707.282227,209.470703 C708.073246,208.697262 709.169915,208.310547 710.572266,208.310547 C711.451176,208.310547 712.298824,208.486326 713.115234,208.837891 L712.511719,210.291016 C711.886716,209.978514 711.236332,209.822266 710.560547,209.822266 C709.775387,209.822266 709.146487,210.085935 708.673828,210.613281 C708.20117,211.140628 707.964844,211.849605 707.964844,212.740234 C707.964844,213.669927 708.155272,214.37988 708.536133,214.870117 C708.916994,215.360354 709.470699,215.605469 710.197266,215.605469 C710.576174,215.605469 710.960936,215.566407 711.351562,215.488281 L711.351562,213.701172 L709.728516,213.701172 L709.728516,212.189453 Z M716.982422,213.712891 L716.982422,217 L715.166016,217 L715.166016,208.433594 L717.662109,208.433594 C718.826178,208.433594 719.687497,208.645506 720.246094,209.069336 C720.80469,209.493166 721.083984,210.136714 721.083984,211 C721.083984,211.503909 720.945314,211.952146 720.667969,212.344727 C720.390624,212.737307 719.998049,213.044921 719.490234,213.267578 C720.779303,215.193369 721.619139,216.437497 722.009766,217 L719.994141,217 L717.949219,213.712891 L716.982422,213.712891 Z M716.982422,212.236328 L717.568359,212.236328 C718.142581,212.236328 718.566405,212.140626 718.839844,211.949219 C719.113283,211.757812 719.25,211.457033 719.25,211.046875 C719.25,210.640623 719.110353,210.351563 718.831055,210.179688 C718.551756,210.007812 718.119144,209.921875 717.533203,209.921875 L716.982422,209.921875 L716.982422,212.236328 Z M728.332031,217 L727.710938,214.960938 L724.587891,214.960938 L723.966797,217 L722.009766,217 L725.033203,208.398438 L727.253906,208.398438 L730.289062,217 L728.332031,217 Z M727.277344,213.4375 C726.703122,211.589835 726.379883,210.544923 726.307617,210.302734 C726.235351,210.060546 726.183594,209.869141 726.152344,209.728516 C726.023437,210.228518 725.6543,211.464834 725.044922,213.4375 L727.277344,213.4375 Z M733.833984,217 L732.017578,217 L732.017578,209.945312 L729.691406,209.945312 L729.691406,208.433594 L736.160156,208.433594 L736.160156,209.945312 L733.833984,209.945312 L733.833984,217 Z M742.412109,217 L737.478516,217 L737.478516,208.433594 L742.412109,208.433594 L742.412109,209.921875 L739.294922,209.921875 L739.294922,211.802734 L742.195312,211.802734 L742.195312,213.291016 L739.294922,213.291016 L739.294922,215.5 L742.412109,215.5 L742.412109,217 Z M751.306641,212.634766 C751.306641,214.044929 750.905277,215.124996 750.102539,215.875 C749.299801,216.625004 748.140633,217 746.625,217 L744.199219,217 L744.199219,208.433594 L746.888672,208.433594 C748.287116,208.433594 749.373043,208.802731 750.146484,209.541016 C750.919926,210.279301 751.306641,211.31054 751.306641,212.634766 Z M749.419922,212.681641 C749.419922,210.841788 748.60743,209.921875 746.982422,209.921875 L746.015625,209.921875 L746.015625,215.5 L746.794922,215.5 C748.544931,215.5 749.419922,214.560556 749.419922,212.681641 Z M682.705078,232 L680.642578,225.279297 L680.589844,225.279297 C680.664063,226.646491 680.701172,227.558591 680.701172,228.015625 L680.701172,232 L679.078125,232 L679.078125,223.433594 L681.550781,223.433594 L683.578125,229.984375 L683.613281,229.984375 L685.763672,223.433594 L688.236328,223.433594 L688.236328,232 L686.542969,232 L686.542969,227.945312 C686.542969,227.753905 686.545898,227.533204 686.551758,227.283203 C686.557617,227.033202 686.583984,226.369146 686.630859,225.291016 L686.578125,225.291016 L684.369141,232 L682.705078,232 Z M695.636719,232 L695.015625,229.960938 L691.892578,229.960938 L691.271484,232 L689.314453,232 L692.337891,223.398438 L694.558594,223.398438 L697.59375,232 L695.636719,232 Z M694.582031,228.4375 C694.00781,226.589835 693.684571,225.544923 693.612305,225.302734 C693.540039,225.060546 693.488281,224.869141 693.457031,224.728516 C693.328124,225.228518 692.958987,226.464834 692.349609,228.4375 L694.582031,228.4375 Z M700.488281,228.712891 L700.488281,232 L698.671875,232 L698.671875,223.433594 L701.167969,223.433594 C702.332037,223.433594 703.193357,223.645506 703.751953,224.069336 C704.31055,224.493166 704.589844,225.136714 704.589844,226 C704.589844,226.503909 704.451173,226.952146 704.173828,227.344727 C703.896483,227.737307 703.503909,228.044921 702.996094,228.267578 C704.285163,230.193369 705.124998,231.437497 705.515625,232 L703.5,232 L701.455078,228.712891 L700.488281,228.712891 Z M700.488281,227.236328 L701.074219,227.236328 C701.64844,227.236328 702.072264,227.140626 702.345703,226.949219 C702.619142,226.757812 702.755859,226.457033 702.755859,226.046875 C702.755859,225.640623 702.616212,225.351563 702.336914,225.179688 C702.057616,225.007812 701.625003,224.921875 701.039062,224.921875 L700.488281,224.921875 L700.488281,227.236328 Z M713.484375,232 L711.421875,232 L709.177734,228.390625 L708.410156,228.941406 L708.410156,232 L706.59375,232 L706.59375,223.433594 L708.410156,223.433594 L708.410156,227.353516 L709.125,226.345703 L711.445312,223.433594 L713.460938,223.433594 L710.472656,227.224609 L713.484375,232 Z M719.496094,232 L714.5625,232 L714.5625,223.433594 L719.496094,223.433594 L719.496094,224.921875 L716.378906,224.921875 L716.378906,226.802734 L719.279297,226.802734 L719.279297,228.291016 L716.378906,228.291016 L716.378906,230.5 L719.496094,230.5 L719.496094,232 Z M724.587891,232 L722.771484,232 L722.771484,224.945312 L720.445312,224.945312 L720.445312,223.433594 L726.914062,223.433594 L726.914062,224.945312 L724.587891,224.945312 L724.587891,232 Z M728.232422,232 L728.232422,223.433594 L730.048828,223.433594 L730.048828,232 L728.232422,232 Z M739.804688,232 L737.496094,232 L733.769531,225.519531 L733.716797,225.519531 C733.791016,226.664068 733.828125,227.480466 733.828125,227.96875 L733.828125,232 L732.205078,232 L732.205078,223.433594 L734.496094,223.433594 L738.216797,229.849609 L738.257812,229.849609 C738.199218,228.736323 738.169922,227.949221 738.169922,227.488281 L738.169922,223.433594 L739.804688,223.433594 L739.804688,232 Z M745.212891,227.189453 L748.611328,227.189453 L748.611328,231.630859 C748.060544,231.810548 747.541995,231.936523 747.055664,232.008789 C746.569334,232.081055 746.072268,232.117188 745.564453,232.117188 C744.271478,232.117188 743.284183,231.737308 742.602539,230.977539 C741.920895,230.21777 741.580078,229.12696 741.580078,227.705078 C741.580078,226.322259 741.975582,225.244144 742.766602,224.470703 C743.557621,223.697262 744.65429,223.310547 746.056641,223.310547 C746.935551,223.310547 747.783199,223.486326 748.599609,223.837891 L747.996094,225.291016 C747.371091,224.978514 746.720707,224.822266 746.044922,224.822266 C745.259762,224.822266 744.630862,225.085935 744.158203,225.613281 C743.685545,226.140628 743.449219,226.849605 743.449219,227.740234 C743.449219,228.669927 743.639647,229.37988 744.020508,229.870117 C744.401369,230.360354 744.955074,230.605469 745.681641,230.605469 C746.060549,230.605469 746.445311,230.566407 746.835938,230.488281 L746.835938,228.701172 L745.212891,228.701172 L745.212891,227.189453 Z M682.705078,247 L680.642578,240.279297 L680.589844,240.279297 C680.664063,241.646491 680.701172,242.558591 680.701172,243.015625 L680.701172,247 L679.078125,247 L679.078125,238.433594 L681.550781,238.433594 L683.578125,244.984375 L683.613281,244.984375 L685.763672,238.433594 L688.236328,238.433594 L688.236328,247 L686.542969,247 L686.542969,242.945312 C686.542969,242.753905 686.545898,242.533204 686.551758,242.283203 C686.557617,242.033202 686.583984,241.369146 686.630859,240.291016 L686.578125,240.291016 L684.369141,247 L682.705078,247 Z M695.636719,247 L695.015625,244.960938 L691.892578,244.960938 L691.271484,247 L689.314453,247 L692.337891,238.398438 L694.558594,238.398438 L697.59375,247 L695.636719,247 Z M694.582031,243.4375 C694.00781,241.589835 693.684571,240.544923 693.612305,240.302734 C693.540039,240.060546 693.488281,239.869141 693.457031,239.728516 C693.328124,240.228518 692.958987,241.464834 692.349609,243.4375 L694.582031,243.4375 Z M706.271484,247 L703.962891,247 L700.236328,240.519531 L700.183594,240.519531 C700.257813,241.664068 700.294922,242.480466 700.294922,242.96875 L700.294922,247 L698.671875,247 L698.671875,238.433594 L700.962891,238.433594 L704.683594,244.849609 L704.724609,244.849609 C704.666015,243.736323 704.636719,242.949221 704.636719,242.488281 L704.636719,238.433594 L706.271484,238.433594 L706.271484,247 Z M713.671875,247 L713.050781,244.960938 L709.927734,244.960938 L709.306641,247 L707.349609,247 L710.373047,238.398438 L712.59375,238.398438 L715.628906,247 L713.671875,247 Z M712.617188,243.4375 C712.042966,241.589835 711.719727,240.544923 711.647461,240.302734 C711.575195,240.060546 711.523438,239.869141 711.492188,239.728516 C711.363281,240.228518 710.994144,241.464834 710.384766,243.4375 L712.617188,243.4375 Z M719.71875,242.189453 L723.117188,242.189453 L723.117188,246.630859 C722.566403,246.810548 722.047854,246.936523 721.561523,247.008789 C721.075193,247.081055 720.578128,247.117188 720.070312,247.117188 C718.777337,247.117188 717.790042,246.737308 717.108398,245.977539 C716.426754,245.21777 716.085938,244.12696 716.085938,242.705078 C716.085938,241.322259 716.481441,240.244144 717.272461,239.470703 C718.063481,238.697262 719.160149,238.310547 720.5625,238.310547 C721.441411,238.310547 722.289058,238.486326 723.105469,238.837891 L722.501953,240.291016 C721.87695,239.978514 721.226566,239.822266 720.550781,239.822266 C719.765621,239.822266 719.136721,240.085935 718.664062,240.613281 C718.191404,241.140628 717.955078,241.849605 717.955078,242.740234 C717.955078,243.669927 718.145506,244.37988 718.526367,244.870117 C718.907228,245.360354 719.460934,245.605469 720.1875,245.605469 C720.566408,245.605469 720.95117,245.566407 721.341797,245.488281 L721.341797,243.701172 L719.71875,243.701172 L719.71875,242.189453 Z M730.089844,247 L725.15625,247 L725.15625,238.433594 L730.089844,238.433594 L730.089844,239.921875 L726.972656,239.921875 L726.972656,241.802734 L729.873047,241.802734 L729.873047,243.291016 L726.972656,243.291016 L726.972656,245.5 L730.089844,245.5 L730.089844,247 Z M735.503906,247 L733.441406,240.279297 L733.388672,240.279297 C733.462891,241.646491 733.5,242.558591 733.5,243.015625 L733.5,247 L731.876953,247 L731.876953,238.433594 L734.349609,238.433594 L736.376953,244.984375 L736.412109,244.984375 L738.5625,238.433594 L741.035156,238.433594 L741.035156,247 L739.341797,247 L739.341797,242.945312 C739.341797,242.753905 739.344727,242.533204 739.350586,242.283203 C739.356445,242.033202 739.382812,241.369146 739.429688,240.291016 L739.376953,240.291016 L737.167969,247 L735.503906,247 Z M748.125,247 L743.191406,247 L743.191406,238.433594 L748.125,238.433594 L748.125,239.921875 L745.007812,239.921875 L745.007812,241.802734 L747.908203,241.802734 L747.908203,243.291016 L745.007812,243.291016 L745.007812,245.5 L748.125,245.5 L748.125,247 Z M757.511719,247 L755.203125,247 L751.476562,240.519531 L751.423828,240.519531 C751.498047,241.664068 751.535156,242.480466 751.535156,242.96875 L751.535156,247 L749.912109,247 L749.912109,238.433594 L752.203125,238.433594 L755.923828,244.849609 L755.964844,244.849609 C755.90625,243.736323 755.876953,242.949221 755.876953,242.488281 L755.876953,238.433594 L757.511719,238.433594 L757.511719,247 Z M762.972656,247 L761.15625,247 L761.15625,239.945312 L758.830078,239.945312 L758.830078,238.433594 L765.298828,238.433594 L765.298828,239.945312 L762.972656,239.945312 L762.972656,247 Z" id="path-1"></path>
        <filter x="-50%" y="-50%" width="200%" height="200%" filterUnits="objectBoundingBox" id="filter-2">
            <feOffset dx="3" dy="3" in="SourceAlpha" result="shadowOffsetOuter1"></feOffset>
            <feColorMatrix values="0 0 0 0 0   0 0 0 0 0   0 0 0 0 0  0 0 0 0.1 0" type="matrix" in="shadowOffsetOuter1"></feColorMatrix>
        </filter>
    </defs>
    <g id="IMM-desktop" stroke="none" stroke-width="1" fill="none" fill-rule="evenodd">
        <g id="d.login" transform="translate(-548.000000, -207.000000)">
            <g id="Combined-Shape">
                <use fill="black" fill-opacity="1" filter="url(#filter-2)" xlink:href="#path-1"></use>
                <use fill="#FFFFFF" fill-rule="evenodd" xlink:href="#path-1"></use>
            </g>
        </g>
    </g>
</svg>