<?xml version="1.0" encoding="UTF-8"?>
<svg width="110px" height="110px" viewBox="0 0 110 110" version="1.1" xmlns="http://www.w3.org/2000/svg" xmlns:xlink="http://www.w3.org/1999/xlink">
    <!-- Generator: Sketch 41 (35326) - http://www.bohemiancoding.com/sketch -->
    <title>catalogos/bpm-status</title>
    <desc>Created with Sketch.</desc>
    <defs>
        <circle id="path-1" cx="55" cy="55" r="55"></circle>
        <mask id="mask-2" maskContentUnits="userSpaceOnUse" maskUnits="objectBoundingBox" x="0" y="0" width="110" height="110" fill="white">
            <use xlink:href="#path-1"></use>
        </mask>
    </defs>
    <g id="IMM-desktop" stroke="none" stroke-width="1" fill="none" fill-rule="evenodd">
        <g id="catalogos/bpm-status">
            <use id="Oval-4" stroke="#CCCCCC" mask="url(#mask-2)" stroke-width="4" fill="#FFFFFF" xlink:href="#path-1"></use>
            <circle id="Oval-4-Copy" fill="#50667E" cx="56" cy="55" r="50"></circle>
            <rect id="Rectangle-56" fill="#FFFFFF" x="24" y="33" width="64" height="45" rx="2"></rect>
            <g id="Group-48" transform="translate(26.000000, 37.000000)">
                <g id="Group-49" opacity="0.100000001" fill="#000000">
                    <path d="M0.5,1 L2.5,1 L2.5,0 L0.5,0 L0.5,1 Z M4.5,1 L6.5,1 L6.5,0 L4.5,0 L4.5,1 Z M8.5,1 L10.5,1 L10.5,0 L8.5,0 L8.5,1 Z M12.5,1 L14.5,1 L14.5,0 L12.5,0 L12.5,1 Z M16.5,1 L18.5,1 L18.5,0 L16.5,0 L16.5,1 Z M20.5,1 L22.5,1 L22.5,0 L20.5,0 L20.5,1 Z M24.5,1 L26.5,1 L26.5,0 L24.5,0 L24.5,1 Z M28.5,1 L30.5,1 L30.5,0 L28.5,0 L28.5,1 Z M32.5,1 L34.5,1 L34.5,0 L32.5,0 L32.5,1 Z M36.5,1 L38.5,1 L38.5,0 L36.5,0 L36.5,1 Z M40.5,1 L42.5,1 L42.5,0 L40.5,0 L40.5,1 Z M44.5,1 L46.5,1 L46.5,0 L44.5,0 L44.5,1 Z M48.5,1 L50.5,1 L50.5,0 L48.5,0 L48.5,1 Z M52.5,1 L54.5,1 L54.5,0 L52.5,0 L52.5,1 Z M56.5,1 L58.5,1 L58.5,0 L56.5,0 L56.5,1 Z" id="Line"></path>
                    <path d="M0.5,10 L2.5,10 L2.5,9 L0.5,9 L0.5,10 Z M4.5,10 L6.5,10 L6.5,9 L4.5,9 L4.5,10 Z M8.5,10 L10.5,10 L10.5,9 L8.5,9 L8.5,10 Z M12.5,10 L14.5,10 L14.5,9 L12.5,9 L12.5,10 Z M16.5,10 L18.5,10 L18.5,9 L16.5,9 L16.5,10 Z M20.5,10 L22.5,10 L22.5,9 L20.5,9 L20.5,10 Z M24.5,10 L26.5,10 L26.5,9 L24.5,9 L24.5,10 Z M28.5,10 L30.5,10 L30.5,9 L28.5,9 L28.5,10 Z M32.5,10 L34.5,10 L34.5,9 L32.5,9 L32.5,10 Z M36.5,10 L38.5,10 L38.5,9 L36.5,9 L36.5,10 Z M40.5,10 L42.5,10 L42.5,9 L40.5,9 L40.5,10 Z M44.5,10 L46.5,10 L46.5,9 L44.5,9 L44.5,10 Z M48.5,10 L50.5,10 L50.5,9 L48.5,9 L48.5,10 Z M52.5,10 L54.5,10 L54.5,9 L52.5,9 L52.5,10 Z M56.5,10 L58.5,10 L58.5,9 L56.5,9 L56.5,10 Z" id="Line-Copy-12"></path>
                    <polygon id="Line-Copy-13" points="0.5 19 59.508474 19 59.508474 18 0.5 18"></polygon>
                    <path d="M0.5,28 L2.5,28 L2.5,27 L0.5,27 L0.5,28 Z M4.5,28 L6.5,28 L6.5,27 L4.5,27 L4.5,28 Z M8.5,28 L10.5,28 L10.5,27 L8.5,27 L8.5,28 Z M12.5,28 L14.5,28 L14.5,27 L12.5,27 L12.5,28 Z M16.5,28 L18.5,28 L18.5,27 L16.5,27 L16.5,28 Z M20.5,28 L22.5,28 L22.5,27 L20.5,27 L20.5,28 Z M24.5,28 L26.5,28 L26.5,27 L24.5,27 L24.5,28 Z M28.5,28 L30.5,28 L30.5,27 L28.5,27 L28.5,28 Z M32.5,28 L34.5,28 L34.5,27 L32.5,27 L32.5,28 Z M36.5,28 L38.5,28 L38.5,27 L36.5,27 L36.5,28 Z M40.5,28 L42.5,28 L42.5,27 L40.5,27 L40.5,28 Z M44.5,28 L46.5,28 L46.5,27 L44.5,27 L44.5,28 Z M48.5,28 L50.5,28 L50.5,27 L48.5,27 L48.5,28 Z M52.5,28 L54.5,28 L54.5,27 L52.5,27 L52.5,28 Z M56.5,28 L58.5,28 L58.5,27 L56.5,27 L56.5,28 Z" id="Line-Copy-14"></path>
                    <path d="M0.5,37 L2.5,37 L2.5,36 L0.5,36 L0.5,37 Z M4.5,37 L6.5,37 L6.5,36 L4.5,36 L4.5,37 Z M8.5,37 L10.5,37 L10.5,36 L8.5,36 L8.5,37 Z M12.5,37 L14.5,37 L14.5,36 L12.5,36 L12.5,37 Z M16.5,37 L18.5,37 L18.5,36 L16.5,36 L16.5,37 Z M20.5,37 L22.5,37 L22.5,36 L20.5,36 L20.5,37 Z M24.5,37 L26.5,37 L26.5,36 L24.5,36 L24.5,37 Z M28.5,37 L30.5,37 L30.5,36 L28.5,36 L28.5,37 Z M32.5,37 L34.5,37 L34.5,36 L32.5,36 L32.5,37 Z M36.5,37 L38.5,37 L38.5,36 L36.5,36 L36.5,37 Z M40.5,37 L42.5,37 L42.5,36 L40.5,36 L40.5,37 Z M44.5,37 L46.5,37 L46.5,36 L44.5,36 L44.5,37 Z M48.5,37 L50.5,37 L50.5,36 L48.5,36 L48.5,37 Z M52.5,37 L54.5,37 L54.5,36 L52.5,36 L52.5,37 Z M56.5,37 L58.5,37 L58.5,36 L56.5,36 L56.5,37 Z" id="Line-Copy-15"></path>
                </g>
                <polygon id="Path-12" fill="#50E3C2" points="14.9720919 28.5183389 18.2350101 23.0801418 25.7891627 25.0945825 28.6686566 18.3757634 40.1369757 29.8440825 49.4930988 11.1318364 57.4930988 27.6318364 60.9472136 20.7236068 60.0527864 20.2763932 57.5069012 25.3681636 49.5069012 8.86816364 39.8630243 28.1559175 28.3313434 16.6242366 25.2108373 23.9054175 17.7649899 21.9198582 15.0279081 26.4816611 5.44672956 8.32784905 0.0384615385 21.3076923 0.961538462 21.6923077 5.55327044 10.672151"></polygon>
            </g>
        </g>
    </g>
</svg>