<?xml version="1.0" encoding="UTF-8"?>
<svg width="110px" height="110px" viewBox="0 0 110 110" version="1.1" xmlns="http://www.w3.org/2000/svg" xmlns:xlink="http://www.w3.org/1999/xlink">
    <!-- Generator: Sketch 42 (36781) - http://www.bohemiancoding.com/sketch -->
    <title>catalogos/brands</title>
    <desc>Created with Sketch.</desc>
    <defs>
        <ellipse id="path-1" cx="55" cy="55" rx="55" ry="55"></ellipse>
        <mask id="mask-2" maskContentUnits="userSpaceOnUse" maskUnits="objectBoundingBox" x="0" y="0" width="110" height="110" fill="white">
            <use xlink:href="#path-1"></use>
        </mask>
        <ellipse id="path-3" cx="50" cy="50" rx="50" ry="50"></ellipse>
    </defs>
    <g id="IMM-desktop" stroke="none" stroke-width="1" fill="none" fill-rule="evenodd">
        <g id="catalogos/brands">
            <use id="Oval-4" stroke="#CCCCCC" mask="url(#mask-2)" stroke-width="4" fill="#FFFFFF" xlink:href="#path-1"></use>
            <ellipse id="Oval-4-Copy" fill="#C1913F" cx="55" cy="55" rx="50" ry="50"></ellipse>
            <g id="Group-6" transform="translate(5.000000, 5.000000)">
                <mask id="mask-4" fill="white">
                    <use xlink:href="#path-3"></use>
                </mask>
                <g id="Mask"></g>
                <path d="M24.6165044,81.4798485 C24.6165044,81.4798485 19.2226283,56.1053618 19.1060471,55.4693896 C18.9894659,54.8342224 19.1994718,54.5983492 19.1994718,54.5983492 L10.3975922,54.5983492 C10.7010227,54.8342224 10.4910169,55.4460438 10.4910169,55.4460438 C10.4910169,55.4460438 4.79371027,80.5379656 4.60765947,81.3381636 C4.42001167,82.1391666 4,82.3033923 4,82.3033923 L12.2884432,82.3033923 C12.0784374,82.1150157 12.125549,81.5265402 12.125549,81.5265402 L12.6621418,77.8548068 L16.7712294,77.8548068 C16.7712294,77.8548068 17.1912411,80.8438763 17.2615092,81.5031943 C17.3317773,82.1625124 17.0986149,82.3033923 17.0986149,82.3033923 L25.1299407,82.3033923 C24.8265102,82.1858582 24.6165044,81.4798485 24.6165044,81.4798485 Z M13.4326956,72.793595 L14.7629987,63.8489274 L16.0477872,72.793595 L13.4326956,72.793595 L13.4326956,72.793595 Z M38.3443383,67.9916022 C38.3443383,67.9916022 43.2008231,67.4506233 43.0371303,61.1657687 C42.8039679,54.2924385 34.4221001,54.6458458 34.4221001,54.6458458 L25.2465219,54.6458458 C25.4565277,54.880914 25.5267959,55.681917 25.5267959,55.681917 L25.5267959,81.3148178 C25.5267959,81.8324508 25.2696784,82.350889 25.2696784,82.350889 L35.4729277,82.350889 C38.0880194,82.350889 44.1813826,81.2206295 44.0176899,74.7473983 C43.8547956,68.2741671 38.3443383,67.9916022 38.3443383,67.9916022 Z M35.8929394,62.7903154 C36.0334756,65.8027307 33.3010043,65.5910083 33.1149535,65.5910083 C33.1149535,62.8370071 33.0678419,60.2480366 33.0678419,60.2480366 C33.0678419,60.2480366 35.7532017,59.7770951 35.8929394,62.7903154 Z M33.0446854,76.3244484 L33.0446854,70.6288743 C33.0446854,70.6288743 36.1500568,70.1104362 36.1500568,73.4996047 C36.1500568,76.8895781 33.0446854,76.3244484 33.0446854,76.3244484 L33.0446854,76.3244484 Z M54.1275145,64.038109 C52.6790332,62.8675981 51.933233,60.7423239 54.6409508,60.5072556 C57.5123614,60.5297964 59.3808544,62.3902164 59.3808544,62.3902164 L59.3808544,55.0692906 C59.1708486,55.2576672 58.8203065,55.281818 58.3771383,55.0934415 C57.9331716,54.9050649 56.9294555,54.5283117 55.8554713,54.3165893 C52.4003563,53.6572713 49.6678849,54.4341234 48.0804644,55.6110745 C46.4930438,56.7880257 45.371948,58.0350143 45.1850987,61.919275 C44.9990479,65.8027307 46.622401,67.4602836 48.8510181,69.7103372 C51.4605203,71.7277377 52.213507,72.4643385 52.8898375,73.3120331 C53.6843463,74.1122311 53.7306594,75.971846 51.1155677,76.2302601 C48.4070514,76.3244484 45.2090538,73.4996047 45.2090538,73.4996047 L45.2090538,81.3856602 C45.4893277,81.1972836 45.9796075,81.3856602 47.0527932,81.9741358 C49.6447284,83.4336518 54.4780566,83.4336518 57.5363165,81.3381636 C60.5945763,79.2434804 61.5519794,74.0888852 60.6416879,71.0289733 C59.7313965,67.9690614 56.624428,66.0522894 54.1275145,64.038109 M71.6849605,54.0340244 C71.6849605,54.0340244 61.4936888,52.5962442 61.4936888,68.4134369 C61.4936888,84.2306296 71.6849605,82.9554651 71.6849605,82.9554651 C71.6849605,82.9554651 81.8969933,83.8490463 81.8969933,68.4134369 C81.8969933,52.9778275 71.6849605,54.0340244 71.6849605,54.0340244 Z M71.6849605,76.4588881 C71.6849605,76.4588881 69.2439421,77.4064062 69.2439421,68.4134369 C69.2439421,59.4212727 71.6849605,60.1272824 71.6849605,60.1272824 C71.6849605,60.1272824 74.0070022,59.4261029 74.0070022,68.4134369 C74.0070022,77.400771 71.6849605,76.4588881 71.6849605,76.4588881 L71.6849605,76.4588881 Z M91.2266822,75.8301611 L91.2266822,55.5869237 C91.2266822,54.9050649 91.4366881,54.6225 91.4366881,54.6225 L83.2887811,54.6225 C83.6385246,55.1167873 83.5458985,55.6577662 83.5458985,55.6577662 L83.5458985,81.149787 C83.5458985,82.1391666 83.2887811,82.2800465 83.2887811,82.2800465 L96.7602961,82.2800465 L96.7602961,75.5484013 C96.5271337,75.7834695 95.7797365,75.8301611 95.7797365,75.8301611 L91.2266822,75.8301611 M109.018089,55.7286087 L109.018089,74.65321 C109.018089,74.65321 109.053223,76.6545099 107.068948,76.6545099 C105.084672,76.6545099 104.880256,74.65321 104.880256,74.65321 L104.880256,55.6110745 C104.880256,54.8342224 105.136574,54.6225 105.136574,54.6225 L97.2034643,54.6225 C97.4142686,54.7400341 97.5076933,55.6110745 97.5076933,55.6110745 L97.5076933,74.65321 C97.5076933,74.65321 97.7009306,82.9627103 106.922822,82.9627103 C116.145512,82.9627103 116.278861,74.6065183 116.278861,74.6065183 L116.278861,55.5635779 C116.278861,55.022599 116.512822,54.6691916 116.512822,54.6691916 L108.71386,54.6691916 C108.970978,54.9517565 109.018089,55.7286087 109.018089,55.7286087 M117.399957,61.3541452 C117.796812,61.0957312 118.403673,61.119077 118.403673,61.119077 L121.882743,61.119077 L121.882743,81.2914719 C121.882743,82.0683241 121.648782,82.3033923 121.648782,82.3033923 L129.820644,82.3033923 C129.563527,82.0449783 129.563527,81.2439753 129.563527,81.2439753 L129.563527,61.119077 L133.112865,61.119077 C133.69657,61.119077 134,61.3541452 134,61.3541452 L134,54.6458458 L117.399957,54.6458458 L117.399957,61.3541452" id="Combined-Shape" fill="#FFFFFF" mask="url(#mask-4)"></path>
                <path d="M16.2661956,26.2422009 C15.9355921,25.0174227 14.8780623,24.3877065 14.1611695,24.342161 L14.1400992,24.276813 C14.1400992,24.276813 16.0870978,23.5683823 17.4957998,23.0921347 C18.9581808,22.6015303 21.0486584,21.9208229 21.0486584,21.9208229 L21.0807655,21.987656 C20.5434722,22.4648937 20.3046751,23.4777863 20.6101949,24.6639499 C20.6101949,24.6639499 23.2896382,35.0404058 23.6739209,36.413207 C24.0546918,37.7845229 24.5839584,38.5523609 25.3068713,38.6484025 L25.331955,38.7142455 C24.9582075,39.074154 24.6577045,39.9712026 24.2764319,40.7954774 C23.8886376,41.6296533 23.0829484,44.1673305 19.953503,45.3708212 C16.5441233,46.6807497 13.0645091,45.890139 11.5830644,43.5118712 C10.6163377,41.9633237 10.8310544,39.8345661 12.3822318,38.9632606 C13.7292278,38.2082942 15.1891005,38.6880073 15.7439525,39.7890206 C16.2832525,40.8543895 15.923552,41.9964927 15.4875968,42.3732333 C15.3977971,42.4539281 15.4860918,42.601951 15.693785,42.7375974 C16.609341,43.3514717 17.6442954,43.3098867 18.6416242,42.783143 C19.9173824,42.1078812 20.3493242,41.0256802 19.6856088,38.5177067 C19.1503222,36.5052881 16.6394414,27.6130218 16.2661956,26.2422009 L16.2661956,26.2422009 Z M42.9387223,38.3780998 C41.4969099,38.7419688 39.041715,39.2840594 39.041715,39.2840594 L39.0216481,39.2192066 C39.5960653,38.6988986 40.2171383,37.4681797 39.3221511,35.7740846 L37.9826802,33.1076919 L32.3303139,34.6171296 L32.1100788,37.7533342 C32.1010487,39.6370372 33.0938625,40.4474503 33.8554043,40.6098299 L33.8709562,40.6786432 C33.8709562,40.6786432 32.058908,41.230635 30.6487011,41.6276731 C29.2650829,42.0662962 27.5192557,42.5806634 27.5192557,42.5806634 L27.4951754,42.5133353 C28.0425022,42.0529296 28.6404982,40.4840847 28.75488,38.6578086 C29.0709349,33.7854289 29.5359871,26.5060679 29.9508719,23.2456032 C30.1535484,21.6792337 29.9573937,20.1955391 28.7313013,19.7806789 L28.713241,19.6999841 C28.713241,19.6999841 30.4339844,19.2039341 32.5269703,18.7128346 C34.281326,18.2994596 36.3763186,17.7642998 36.3763186,17.7642998 L36.4039107,17.8435094 C35.5916997,18.9093734 36.213776,20.0321693 36.9838463,21.4366543 C37.7112743,22.7738111 43.903944,33.9671159 44.4256855,34.8923829 C45.3367263,36.4434056 45.9201737,37.0671811 46.8557966,37.4805562 L46.8643251,37.5483794 C46.8643251,37.5483794 44.3960867,38.0686873 42.9387223,38.3780998 L42.9387223,38.3780998 Z M33.1184445,23.4302606 L32.5540607,31.4447856 L36.5890285,30.3363465 L33.1184445,23.4302606 Z M61.1941547,13.8097612 L67.8568934,13.3033149 L67.8709403,13.370148 C66.1316349,14.1835314 66.3177561,15.65881 66.4938439,17.9469769 L67.3818077,30.9908157 C67.5950194,32.8992717 68.0746202,34.3755403 68.9314802,34.74436 L68.9254601,34.8126783 C68.9254601,34.8126783 67.3722759,34.9047594 65.2276175,35.0735748 C63.0944977,35.2438754 61.5122164,35.3993243 61.5122164,35.3993243 L61.4976678,35.3329862 C62.2812833,34.8126783 62.9455003,33.2042286 62.796503,31.2274543 C62.796503,31.2274543 62.2215841,22.7436125 62.1618848,22.0341916 C62.0901454,21.2346698 62.1684066,20.6846583 62.1684066,20.6846583 C62.1684066,20.6846583 62.0640583,21.2792252 61.8568667,21.9658733 C61.6476685,22.6515313 57.5790885,36.1042896 57.5790885,36.1042896 L57.4727335,36.1117155 C57.4727335,36.1117155 51.4260511,25.0590077 50.8827376,24.1708702 C50.4497926,23.4609543 50.2757115,22.7886629 50.2757115,22.7886629 C50.2757115,22.7886629 50.4874181,23.4178841 50.6273853,24.2649316 C50.7678542,25.1090088 51.8389292,32.5611457 51.8389292,32.5611457 C52.1835795,34.5141571 53.2280658,35.9141866 54.1135212,36.2300348 L54.118538,36.297858 L48.2705186,37.2384719 L48.2509533,37.1765894 C48.9884148,36.611726 49.0887497,35.0646638 48.8228622,33.1606633 L47.0519513,20.227718 C46.7755287,18.2608449 45.7606413,16.6939803 44.2867216,16.2137721 L44.2822066,16.1444638 L50.9223699,15.0246382 C50.9223699,15.0246382 56.4653712,24.9520748 57.4386196,26.4610174 C58.0295922,24.5733539 61.1941547,13.8097612 61.1941547,13.8097612 L61.1941547,13.8097612 Z M86.4991169,13.1508364 L86.3350693,17.8855895 L86.2663399,17.8905401 C85.5012863,16.1286218 83.5653245,15.7711886 81.8320392,15.7875255 L78.0749991,15.8256452 L77.9731592,21.5341811 L79.8765121,21.5866574 C82.4099682,21.6371536 83.1594699,21.4297235 84.0845576,19.8465218 L84.1522837,19.8574131 L83.9109782,26.6412192 L83.8437539,26.647655 C83.0069608,24.8862318 81.1352134,24.7659322 79.4044365,24.7837544 L77.979681,24.7773186 L77.8306836,31.076461 L81.7542797,31.1536904 C84.2862308,31.2027013 85.5554672,30.5111026 86.3747016,29.0660227 L86.441926,29.0798844 L85.7425918,34.6394073 C81.1076213,34.4859387 75.7883669,34.4587104 71.641024,34.645348 L71.6294855,34.5775248 C72.5676167,33.9671159 73.078823,32.5888691 73.0888565,30.5170433 L73.2383555,17.0063631 C73.2549108,15.0855306 73.118957,13.8567919 71.7749711,13.1914313 L71.7845029,13.1241032 C76.3030849,12.9582581 82.0482609,12.9503372 86.4991169,13.1508364 L86.4991169,13.1508364 Z M96.6028407,35.760718 C93.8215575,35.678043 93.5220578,34.8998088 91.948305,34.5438607 C90.795457,34.2844493 90.0123432,34.7814895 89.6717062,35.1829831 L89.6039802,35.1755572 L89.9375937,27.5793578 L90.0038147,27.5709418 C90.5722119,29.0447351 92.1876037,31.084382 94.0573445,32.1160869 C95.7600276,33.0532353 97.4837811,32.6641182 98.3637182,31.5606296 C99.126765,30.6002134 99.3204114,28.8234433 98.1138843,27.6110416 C96.9098655,26.3971547 95.0045059,25.5812959 93.4026593,24.3688942 C90.1723774,21.9178525 90.3820773,18.6059017 91.391948,16.7652689 C92.8031583,14.1959079 95.762536,13.1503414 98.4038521,13.4023269 C100.012722,13.5572806 100.736638,13.9637248 101.857881,14.3176926 C102.984642,14.6716605 103.980967,14.4592798 104.18866,14.345416 L104.256387,14.3568024 L103.74518,20.3544533 L103.676451,20.3584138 C103.09802,18.7732319 101.18363,16.7969527 99.1704107,16.4261528 C97.4045166,16.105354 96.4272547,16.7221987 95.9938079,17.4405306 C95.3250759,18.5469895 95.6220672,19.7772134 96.8386278,20.6094092 C98.6015119,21.8104245 100.742157,22.7094533 102.150357,24.0183918 C104.197189,25.9243725 104.850871,29.3021663 103.029291,32.2888628 C101.561391,34.6988145 98.6772647,35.8226005 96.6028407,35.760718 L96.6028407,35.760718 Z M125.220359,29.3615735 C123.706808,35.5146732 119.083376,39.7776342 113.644221,38.5993916 C107.718442,37.3166913 105.895859,31.7888523 107.434996,25.5149579 C108.954066,19.3163127 113.248901,15.41128 118.785381,16.328131 C125.348286,17.4142924 126.697289,23.3545164 125.220359,29.3615735 L125.220359,29.3615735 Z M118.256114,19.4163148 C115.405098,18.79848 113.504755,22.2054823 112.525487,26.6035947 C111.496553,31.241316 111.974648,34.8314905 114.584359,35.396849 C117.072163,35.9354741 119.180199,32.9047173 120.20813,28.2674911 C121.186897,23.8688837 121.108134,20.0341495 118.256114,19.4163148 L118.256114,19.4163148 Z M138.515736,34.3740552 C138.660219,34.9616913 138.670754,35.7334897 138.670754,35.7334897 C138.670754,35.7334897 138.647677,35.3671454 138.931123,34.4587104 L141.365749,27.3956905 C141.984314,25.5753552 141.964247,24.2505749 141.140999,23.2129293 L141.173106,23.1545122 L147.077815,25.3208944 L147.061259,25.3882226 C145.831655,25.7431805 144.890514,26.747162 144.270444,28.580864 C143.925292,29.6794019 138.523763,45.3599298 138.523763,45.3599298 L135.54482,44.2485203 L132.608519,29.9011888 C132.459522,29.3155329 132.453502,28.5442296 132.453502,28.5442296 C132.453502,28.5442296 132.474071,28.9085937 132.192631,29.8195039 C131.940791,30.6388281 129.501649,37.8409598 129.501649,37.8409598 C128.956831,39.7509009 129.02857,41.0677603 129.806667,42.0757023 L129.78058,42.1395651 L123.468512,40.3093285 L123.478546,40.2420004 C124.762331,39.8865474 125.854476,38.9246459 126.45197,37.0953995 L130.447807,24.7099905 C131.062359,22.6837102 130.902826,20.8351565 129.7866,19.7727579 L129.811183,19.7084001 L135.6286,21.3752669 L138.515736,34.3740552 Z M149.532508,28.5259123 C150.596559,28.8135421 151.221646,29.8952481 150.927163,30.9477455 C150.636693,32.0007379 149.540535,32.6180776 148.47247,32.3279725 C147.406411,32.0393526 146.780322,30.9571516 147.074303,29.9046542 C147.369287,28.8521568 148.465446,28.2358072 149.532508,28.5259123 L149.532508,28.5259123 Z M149.405584,28.9714663 C148.576818,28.7452239 147.789189,29.2095901 147.55591,30.03535 C147.327648,30.861605 147.769122,31.6596416 148.598892,31.8834087 C149.426654,32.1096511 150.218798,31.6437997 150.447562,30.8180398 C150.676827,29.993765 150.239869,29.1942432 149.405584,28.9714663 L149.405584,28.9714663 Z M147.822801,30.9720034 C148.05909,31.0076477 148.077652,31.0031922 148.129826,30.8319014 L148.46946,29.6026677 C148.518122,29.4308819 148.501065,29.4145449 148.279827,29.3284045 L148.325479,29.1685001 L149.475317,29.4779126 C149.802409,29.5655382 150.056256,29.7863349 149.957426,30.1412929 C149.889198,30.390308 149.653411,30.5591234 149.369464,30.5690246 L149.586187,31.2655739 C149.636354,31.4195376 149.711606,31.4843904 149.791372,31.505678 L149.748729,31.6675626 L149.276654,31.5408272 C149.174814,31.5116187 149.119128,31.4274585 149.078994,31.2645838 L148.877321,30.5234791 L148.74237,30.4878348 L148.612938,30.9611121 C148.562771,31.133888 148.58033,31.1497299 148.79906,31.2373555 L148.751902,31.39825 L147.78066,31.133888 L147.822801,30.9720034 Z M148.942037,30.3665451 C149.094044,30.40714 149.305249,30.3507032 149.393042,30.0274291 C149.473812,29.7422746 149.332841,29.613559 149.168794,29.5675184 L149.010265,29.5259334 L148.788023,30.3259502 L148.942037,30.3665451 Z" id="Fill-21" fill="#FFFFFF" mask="url(#mask-4)"></path>
            </g>
        </g>
    </g>
</svg>