<?xml version="1.0" encoding="UTF-8"?>
<svg width="110px" height="110px" viewBox="0 0 110 110" version="1.1" xmlns="http://www.w3.org/2000/svg" xmlns:xlink="http://www.w3.org/1999/xlink">
    <!-- Generator: Sketch 42 (36781) - http://www.bohemiancoding.com/sketch -->
    <title>catalogos/drivers</title>
    <desc>Created with Sketch.</desc>
    <defs>
        <circle id="path-1" cx="55" cy="55" r="55"></circle>
        <mask id="mask-2" maskContentUnits="userSpaceOnUse" maskUnits="objectBoundingBox" x="0" y="0" width="110" height="110" fill="white">
            <use xlink:href="#path-1"></use>
        </mask>
        <circle id="path-3" cx="55" cy="55" r="34"></circle>
        <mask id="mask-4" maskContentUnits="userSpaceOnUse" maskUnits="objectBoundingBox" x="0" y="0" width="68" height="68" fill="white">
            <use xlink:href="#path-3"></use>
        </mask>
    </defs>
    <g id="IMM-desktop" stroke="none" stroke-width="1" fill="none" fill-rule="evenodd">
        <g id="catalogos/drivers">
            <use id="Oval-4" stroke="#CCCCCC" mask="url(#mask-2)" stroke-width="4" fill="#FFFFFF" xlink:href="#path-1"></use>
            <circle id="Oval-4-Copy" fill="#4FBA97" cx="55" cy="55" r="50"></circle>
            <use id="Oval-26" stroke="#3B4C5E" mask="url(#mask-4)" stroke-width="14" xlink:href="#path-3"></use>
            <path d="M46.5,62.5 C48,66 49.6671867,74 49.5,82 C49.6671867,82 55,82.5 55,82.5 C55,82.5 55,47 55,45 C44.3719618,45 38,49 27,55.5 C27,56.5 28,61 28,62 C34,60.5 42,61 46.5,62.5 Z" id="Oval-27-Copy" fill="#3B4C5E"></path>
            <path d="M74.5,62.5 C76,66 77.6671867,74 77.5,82 C77.6671867,82 83,82.5 83,82.5 C83,82.5 83,47 83,45 C72.3719618,45 66,49 55,55.5 C55,56.5 56,61 56,62 C62,60.5 70,61 74.5,62.5 Z" id="Oval-27-Copy-2" fill="#3B4C5E" transform="translate(69.000000, 63.750000) scale(-1, 1) translate(-69.000000, -63.750000) "></path>
            <circle id="Oval-27" fill="#4FBA97" cx="55" cy="56" r="4"></circle>
        </g>
    </g>
</svg>