<?xml version="1.0" encoding="UTF-8"?>
<svg width="110px" height="110px" viewBox="0 0 110 110" version="1.1" xmlns="http://www.w3.org/2000/svg" xmlns:xlink="http://www.w3.org/1999/xlink">
    <!-- Generator: Sketch 42 (36781) - http://www.bohemiancoding.com/sketch -->
    <title>catalogos/escenarios</title>
    <desc>Created with Sketch.</desc>
    <defs>
        <ellipse id="path-1" cx="55" cy="55" rx="55" ry="55"></ellipse>
        <mask id="mask-2" maskContentUnits="userSpaceOnUse" maskUnits="objectBoundingBox" x="0" y="0" width="110" height="110" fill="white">
            <use xlink:href="#path-1"></use>
        </mask>
    </defs>
    <g id="IMM-desktop" stroke="none" stroke-width="1" fill="none" fill-rule="evenodd">
        <g id="catalogos/escenarios">
            <use id="Oval-4" stroke="#CCCCCC" mask="url(#mask-2)" stroke-width="4" fill="#FFFFFF" xlink:href="#path-1"></use>
            <ellipse id="Oval-4-Copy" fill="#F6D787" cx="55" cy="55" rx="50" ry="50"></ellipse>
            <g id="Group-65" transform="translate(18.000000, 24.000000)" fill-rule="nonzero">
                <path d="M5.27472527,25.4269663 C2.36589011,25.4269663 0,27.770427 0,30.6516854 C0,33.5329438 2.36589011,35.8764045 5.27472527,35.8764045 C8.18356044,35.8764045 10.5494505,33.5329438 10.5494505,30.6516854 C10.5494505,27.770427 8.18356044,25.4269663 5.27472527,25.4269663 Z M5.27472527,32.3932584 C4.30487912,32.3932584 3.51648352,31.6123371 3.51648352,30.6516854 C3.51648352,29.6910337 4.30487912,28.9101124 5.27472527,28.9101124 C6.24457143,28.9101124 7.03296703,29.6910337 7.03296703,30.6516854 C7.03296703,31.6123371 6.24457143,32.3932584 5.27472527,32.3932584 Z" id="Shape" fill="#50667E"></path>
                <path d="M49.7434725,10.2606517 C49.4206593,10.588764 49.2307692,11.0346067 49.2307692,11.494382 C49.2307692,11.9541573 49.4206593,12.4 49.7434725,12.7274157 C50.0747253,13.0471685 50.5248352,13.2359551 50.989011,13.2359551 C51.4531868,13.2359551 51.9032967,13.0471685 52.2338462,12.7274157 C52.5566593,12.4 52.7472527,11.9541573 52.7472527,11.494382 C52.7472527,11.0346067 52.5566593,10.588764 52.2338462,10.2606517 C51.5797802,9.61348315 50.3982418,9.61348315 49.7434725,10.2606517 Z" id="Shape" fill="#666666"></path>
                <path d="M36.487033,27.6004494 C36.9371429,27.6004494 37.3802198,27.4332584 37.7248352,27.0919101 C38.4140659,26.4161798 38.4140659,25.3085393 37.7248352,24.632809 C37.0426374,23.950809 35.9243956,23.950809 35.2421978,24.632809 C34.5536703,25.309236 34.5536703,26.4168764 35.2421978,27.0919101 C35.5868132,27.4332584 36.0291868,27.6004494 36.487033,27.6004494 Z" id="Shape" fill="#666666"></path>
                <path d="M44.9118242,15.0534607 C44.2232967,15.7298876 44.2232967,16.8375281 44.9118242,17.5125618 C45.2564396,17.8539101 45.6995165,18.0211011 46.1503297,18.0211011 C46.6067692,18.0211011 47.0498462,17.8539101 47.3951648,17.5125618 C48.0843956,16.8368315 48.0843956,15.729191 47.3951648,15.0534607 C46.712967,14.3714607 45.5947253,14.3714607 44.9118242,15.0534607 Z" id="Shape" fill="#666666"></path>
                <path d="M40.0731429,19.8393034 C39.3909451,20.522 39.3909451,21.6233708 40.0731429,22.3053708 C40.4177582,22.6467191 40.8678681,22.8139101 41.3186813,22.8139101 C41.7687912,22.8139101 42.2189011,22.6467191 42.5635165,22.3053708 C43.2464176,21.6233708 43.2464176,20.522 42.5635165,19.8393034 C41.8742857,19.1642697 40.7630769,19.1642697 40.0731429,19.8393034 Z" id="Shape" fill="#666666"></path>
                <polygon id="Shape" fill="#1BBC9C" points="57.1428571 4.67786517 54.8698022 2.42566292 52.3829451 4.88894382 57.1428571 9.60303371 63.661011 3.14737079 61.1741538 0.684089888"></polygon>
                <polygon id="Shape" fill="#F05B30" points="60.5081319 51.8501124 58.021978 54.3126966 55.5358242 51.8501124 53.0496703 54.3126966 55.5358242 56.7752809 53.0496703 59.2378652 55.5358242 61.7004494 58.021978 59.2378652 60.5081319 61.7004494 62.9942857 59.2378652 60.5081319 56.7752809 62.9942857 54.3126966"></polygon>
                <path d="M32.9072527,29.4360674 C32.9023297,29.4304944 32.8981099,29.4242247 32.8931868,29.4186517 C32.8882637,29.4137753 32.8819341,29.4102921 32.8763077,29.4054157 L32.3762637,28.9101124 L14.0659341,28.9101124 L14.0659341,32.3932584 L30.9204396,32.3932584 L50.989011,52.271573 L53.4751648,49.8089888 L32.9072527,29.4360674 Z" id="Shape" fill="#666666"></path>
            </g>
        </g>
    </g>
</svg>