<?xml version="1.0" encoding="UTF-8"?>
<svg width="110px" height="110px" viewBox="0 0 110 110" version="1.1" xmlns="http://www.w3.org/2000/svg" xmlns:xlink="http://www.w3.org/1999/xlink">
    <!-- Generator: Sketch 42 (36781) - http://www.bohemiancoding.com/sketch -->
    <title>catalogos/kpis</title>
    <desc>Created with Sketch.</desc>
    <defs>
        <ellipse id="path-1" cx="55" cy="55" rx="55" ry="55"></ellipse>
        <mask id="mask-2" maskContentUnits="userSpaceOnUse" maskUnits="objectBoundingBox" x="0" y="0" width="110" height="110" fill="white">
            <use xlink:href="#path-1"></use>
        </mask>
    </defs>
    <g id="IMM-desktop" stroke="none" stroke-width="1" fill="none" fill-rule="evenodd">
        <g id="catalogos/kpis">
            <use id="Oval-4" stroke="#CCCCCC" mask="url(#mask-2)" stroke-width="4" fill="#FFFFFF" xlink:href="#path-1"></use>
            <ellipse id="Oval-4-Copy" fill="#C2E0D7" cx="55" cy="55" rx="50" ry="50"></ellipse>
            <path d="M83,47.3119837 L74.1550766,56.2112358 L73.417768,55.4693984 C70.5470594,52.5810569 67.1384839,50.4331545 63.4192797,49.1130894 L63.9592314,47.0861463 C65.6805447,47.686748 67.342095,48.4474634 68.9230347,49.3696911 L73.0953258,42.0988455 C70.5811104,40.6340488 67.9105384,39.4754959 65.1287794,38.645561 L64.2302497,42.0212358 L62.2170706,41.4786667 L63.1149054,38.1057886 C60.6562835,37.5212683 58.1205257,37.1940488 55.5423778,37.1234309 L55.5423778,40.5955935 L53.4576222,40.5955935 L53.4576222,37.1234309 C50.8787794,37.194748 48.3437165,37.5212683 45.8850946,38.1057886 L46.7829294,41.4786667 L44.7697503,42.0212358 L43.8712206,38.645561 C41.4223276,39.3762114 39.0630791,40.3669593 36.8177972,41.5926341 L38.5509241,44.6145203 L36.7448308,45.6626016 L35.0130937,42.642813 C32.8637106,43.9796585 30.8324637,45.5388455 28.9589632,47.3231707 L34.8581269,53.2585691 C40.2110846,48.2391057 47.144982,45.4878049 54.5,45.4878049 C56.3436189,45.4878049 58.1594411,45.6681951 59.9307885,46.0073008 L59.3908368,48.0377398 C57.7932191,47.7426829 56.1587706,47.5853659 54.5,47.5853659 C47.3541524,47.5853659 40.6349849,50.3856098 35.5815371,55.4693984 L34.8442285,56.2112358 L26,47.3119837 L26.7373086,46.5701463 C34.1534795,39.109122 44.0122891,35 54.5,35 C64.9877109,35 74.8465205,39.109122 82.2626914,46.5708455 L83,47.3119837 Z M55.8432776,74.1404878 C55.6806666,73.5300976 55.1302911,73.1035935 54.5041695,73.1035935 C54.3839486,73.1035935 54.2616429,73.1196748 54.1421169,73.1525366 C53.4013338,73.3525041 52.9600605,74.1216098 53.1581123,74.8662439 C53.3207232,75.4766341 53.8717936,75.902439 54.4972203,75.902439 C54.6181362,75.902439 54.7404418,75.8863577 54.8592729,75.8541951 C55.2192407,75.7570081 55.5180557,75.5262764 55.7035989,75.203252 C55.8898371,74.8795285 55.9384814,74.5019675 55.8432776,74.1404878 Z" id="Shape" fill="#50667E" fill-rule="nonzero"></path>
            <path d="M57.8564566,73.5979187 C58.3533234,75.4640488 57.2539623,77.3805203 55.3999195,77.8797398 C55.0983249,77.9608455 54.7953404,78 54.4972203,78 C52.9635351,78 51.5597996,76.9700976 51.1442383,75.408813 C50.6480664,73.5433821 51.7474276,71.6276098 53.6014703,71.1269919 C53.851641,71.0591707 54.1025066,71.0270081 54.3498976,71.0165203 L61.8571028,42.8287967 L63.8702819,43.3713659 L56.3623817,71.5646829 C57.0691139,72.0177561 57.6222691,72.7190407 57.8564566,73.5979187 Z" id="Path" fill="#F05B30"></path>
        </g>
    </g>
</svg>