<?xml version="1.0" encoding="UTF-8"?>
<svg width="110px" height="110px" viewBox="0 0 110 110" version="1.1" xmlns="http://www.w3.org/2000/svg" xmlns:xlink="http://www.w3.org/1999/xlink">
    <!-- Generator: Sketch 41 (35326) - http://www.bohemiancoding.com/sketch -->
    <title>catalogos/proveedores</title>
    <desc>Created with Sketch.</desc>
    <defs>
        <circle id="path-1" cx="55" cy="55" r="55"></circle>
        <mask id="mask-2" maskContentUnits="userSpaceOnUse" maskUnits="objectBoundingBox" x="0" y="0" width="110" height="110" fill="white">
            <use xlink:href="#path-1"></use>
        </mask>
    </defs>
    <g id="IMM-desktop" stroke="none" stroke-width="1" fill="none" fill-rule="evenodd">
        <g id="catalogos/proveedores">
            <use id="Oval-4" stroke="#CCCCCC" mask="url(#mask-2)" stroke-width="4" fill="#FFFFFF" xlink:href="#path-1"></use>
            <circle id="Oval-4-Copy" fill="#E46A5D" cx="55" cy="55" r="50"></circle>
            <g id="Group-53" transform="translate(12.000000, 27.000000)">
                <polygon id="Path-15" fill="#F6C35B" points="62.9268293 41.1428571 44.0487805 56.6153846 39.504065 47.8241758 50.3414634 35.1648352"></polygon>
                <g id="Group-52" transform="translate(0.000000, 3.516484)">
                    <path d="M17.9424833,29.6832239 C17.9424833,29.6832239 19.6904508,22.2986085 24.2351662,18.782125 C28.7798817,15.2656415 35.7717516,12.4524547 35.7717516,12.4524547 L32.6254101,21.9469602 L65.1358653,21.9469602 C66.6824227,21.9469602 67.9361552,23.1969965 67.9361552,24.7387773 L67.9361552,24.4298686 C67.9361552,25.9717466 66.6752121,27.2216857 65.1414487,27.2216857 L52.7626098,27.2216857 C52.4533503,27.2216857 52.2026459,27.4663629 52.2026459,27.7738753 L52.2026459,27.7244409 C52.2026459,28.0294068 52.4510954,28.2766305 52.7556542,28.2766305 L64.4465433,28.2766305 C65.9891322,28.2766305 67.2396475,29.5320419 67.2396475,31.0780676 L67.2396475,31.4638154 C67.2396475,33.0110064 65.9834644,34.2652525 64.4465426,34.2652525 L52.7556502,34.2652525 C52.4502321,34.2652525 52.2026418,34.5074712 52.2026418,34.8241134 L52.2026418,34.7507367 C52.2026418,35.059387 52.4561561,35.3095975 52.7565495,35.3095975 L62.6861186,35.3095975 C64.2331125,35.3095975 65.4871987,36.5607086 65.4871987,38.1117579 L65.4871987,38.1447891 C65.4871987,39.6923795 64.2374198,40.9469494 62.6861184,40.9469494 L52.7565486,40.9469494 C52.4506338,40.9469494 52.2026409,41.1890804 52.2026409,41.5056079 L52.2026409,41.4322578 C52.2026409,41.7407963 52.4583202,41.9909162 52.7604386,41.9909162 L61.6356276,41.9909162 C63.1866795,41.9909162 64.4440554,43.2382466 64.4440554,44.7893912 L64.4440554,45.2123565 C64.4440554,46.7579116 63.1987757,48.0108316 61.6493508,48.0108316 L22.8348888,48.0108316 C22.8348888,48.0108316 17.5928898,46.9139931 17.2432963,41.6392679 C16.8937028,36.3645426 17.9424833,29.6832239 17.9424833,29.6832239 Z" id="Path-13" fill="#FFFFFF" transform="translate(42.554053, 30.231643) rotate(41.000000) translate(-42.554053, -30.231643) "></path>
                    <rect id="Rectangle-63" fill="#79CDD1" transform="translate(15.104394, 16.219690) rotate(41.000000) translate(-15.104394, -16.219690) " x="8.11252384" y="2.15375549" width="13.9837398" height="28.1318681"></rect>
                    <ellipse id="Oval-20" fill="#FFFFFF" transform="translate(9.175678, 23.615986) rotate(41.000000) translate(-9.175678, -23.615986) " cx="9.17567814" cy="23.6159859" rx="2.44715447" ry="2.46153846"></ellipse>
                </g>
                <path d="M48.2985406,10.6071582 C48.2985406,10.6071582 42.0058577,12.0137516 38.1603292,17.2884769 C34.3148008,22.5632022 26.9733373,36.9807846 26.9733373,39.442323 C26.9733373,41.9038615 27.6725243,44.0137516 29.4204918,43.6621033 C31.1684593,43.3104549 42.0058577,27.8379274 42.0058577,27.8379274 L68.2003637,24.6110228 C68.2003637,24.6110228 68.5749634,18.6950703 68.2253699,15.8818835 C67.8757764,13.0686967 63.3310609,10.2555098 60.1847195,10.6071582 C57.038378,10.9588066 48.2985406,10.6071582 48.2985406,10.6071582 Z" id="Path-14" fill="#F6C35B" transform="translate(47.673927, 27.138937) rotate(48.000000) translate(-47.673927, -27.138937) "></path>
                <rect id="Rectangle-65" fill="#F6C35B" transform="translate(23.802313, 42.506972) rotate(48.000000) translate(-23.802313, -42.506972) " x="20.6559716" y="36.8805979" width="6.29268293" height="11.2527473" rx="3.14634146"></rect>
                <rect id="Rectangle-65-Copy" fill="#F6C35B" transform="translate(29.519982, 46.792290) rotate(48.000000) translate(-29.519982, -46.792290) " x="26.3736402" y="41.1659162" width="6.29268293" height="11.2527473" rx="3.14634146"></rect>
                <rect id="Rectangle-65-Copy-2" fill="#F6C35B" transform="translate(35.237650, 51.077608) rotate(48.000000) translate(-35.237650, -51.077608) " x="32.0913087" y="45.4512346" width="6.29268293" height="11.2527473" rx="3.14634146"></rect>
                <rect id="Rectangle-65-Copy-3" fill="#F6C35B" transform="translate(40.435722, 55.833524) rotate(48.000000) translate(-40.435722, -55.833524) " x="37.2893801" y="50.2071503" width="6.29268293" height="11.2527473" rx="3.14634146"></rect>
                <rect id="Rectangle-64" fill="#FFFFFF" transform="translate(70.778308, 19.834938) rotate(48.000000) translate(-70.778308, -19.834938) " x="57.1441619" y="12.450323" width="27.2682927" height="14.7692308"></rect>
                <ellipse id="Oval-21" fill="#2F738D" transform="translate(76.860325, 26.629405) rotate(48.000000) translate(-76.860325, -26.629405) " cx="76.8603247" cy="26.6294054" rx="2.44715447" ry="2.46153846"></ellipse>
            </g>
        </g>
    </g>
</svg>