<?xml version="1.0" encoding="UTF-8"?>
<svg width="110px" height="110px" viewBox="0 0 110 110" version="1.1" xmlns="http://www.w3.org/2000/svg" xmlns:xlink="http://www.w3.org/1999/xlink">
    <!-- Generator: Sketch 41 (35326) - http://www.bohemiancoding.com/sketch -->
    <title>catalogos/tasa-cambio</title>
    <desc>Created with Sketch.</desc>
    <defs>
        <circle id="path-1" cx="55" cy="55" r="55"></circle>
        <mask id="mask-2" maskContentUnits="userSpaceOnUse" maskUnits="objectBoundingBox" x="0" y="0" width="110" height="110" fill="white">
            <use xlink:href="#path-1"></use>
        </mask>
        <polygon id="path-3" points="6 8.34 5.07294902 8.85316955 4.62458251 7.89309977 3.57294902 7.76335576 3.77452775 6.72309977 3 6 3.77452775 5.27690023 3.57294902 4.23664424 4.62458251 4.10690023 5.07294902 3.14683045 6 3.66 6.92705098 3.14683045 7.37541749 4.10690023 8.42705098 4.23664424 8.22547225 5.27690023 9 6 8.22547225 6.72309977 8.42705098 7.76335576 7.37541749 7.89309977 6.92705098 8.85316955"></polygon>
        <filter x="-50%" y="-50%" width="200%" height="200%" filterUnits="objectBoundingBox" id="filter-4">
            <feMorphology radius="0.5" operator="dilate" in="SourceAlpha" result="shadowSpreadOuter1"></feMorphology>
            <feOffset dx="0" dy="0" in="shadowSpreadOuter1" result="shadowOffsetOuter1"></feOffset>
            <feComposite in="shadowOffsetOuter1" in2="SourceAlpha" operator="out" result="shadowOffsetOuter1"></feComposite>
            <feColorMatrix values="0 0 0 0 0.149019608   0 0 0 0 0.145098039   0 0 0 0 0.215686275  0 0 0 1 0" type="matrix" in="shadowOffsetOuter1"></feColorMatrix>
        </filter>
        <polygon id="path-5" points="61 8.34 60.072949 8.85316955 59.6245825 7.89309977 58.572949 7.76335576 58.7745278 6.72309977 58 6 58.7745278 5.27690023 58.572949 4.23664424 59.6245825 4.10690023 60.072949 3.14683045 61 3.66 61.927051 3.14683045 62.3754175 4.10690023 63.427051 4.23664424 63.2254722 5.27690023 64 6 63.2254722 6.72309977 63.427051 7.76335576 62.3754175 7.89309977 61.927051 8.85316955"></polygon>
        <filter x="-50%" y="-50%" width="200%" height="200%" filterUnits="objectBoundingBox" id="filter-6">
            <feMorphology radius="0.5" operator="dilate" in="SourceAlpha" result="shadowSpreadOuter1"></feMorphology>
            <feOffset dx="0" dy="0" in="shadowSpreadOuter1" result="shadowOffsetOuter1"></feOffset>
            <feComposite in="shadowOffsetOuter1" in2="SourceAlpha" operator="out" result="shadowOffsetOuter1"></feComposite>
            <feColorMatrix values="0 0 0 0 0.149019608   0 0 0 0 0.145098039   0 0 0 0 0.215686275  0 0 0 1 0" type="matrix" in="shadowOffsetOuter1"></feColorMatrix>
        </filter>
        <polygon id="path-7" points="6 39.34 5.07294902 39.8531695 4.62458251 38.8930998 3.57294902 38.7633558 3.77452775 37.7230998 3 37 3.77452775 36.2769002 3.57294902 35.2366442 4.62458251 35.1069002 5.07294902 34.1468305 6 34.66 6.92705098 34.1468305 7.37541749 35.1069002 8.42705098 35.2366442 8.22547225 36.2769002 9 37 8.22547225 37.7230998 8.42705098 38.7633558 7.37541749 38.8930998 6.92705098 39.8531695"></polygon>
        <filter x="-50%" y="-50%" width="200%" height="200%" filterUnits="objectBoundingBox" id="filter-8">
            <feMorphology radius="0.5" operator="dilate" in="SourceAlpha" result="shadowSpreadOuter1"></feMorphology>
            <feOffset dx="0" dy="0" in="shadowSpreadOuter1" result="shadowOffsetOuter1"></feOffset>
            <feComposite in="shadowOffsetOuter1" in2="SourceAlpha" operator="out" result="shadowOffsetOuter1"></feComposite>
            <feColorMatrix values="0 0 0 0 0.149019608   0 0 0 0 0.145098039   0 0 0 0 0.215686275  0 0 0 1 0" type="matrix" in="shadowOffsetOuter1"></feColorMatrix>
        </filter>
        <polygon id="path-9" points="61 39.34 60.072949 39.8531695 59.6245825 38.8930998 58.572949 38.7633558 58.7745278 37.7230998 58 37 58.7745278 36.2769002 58.572949 35.2366442 59.6245825 35.1069002 60.072949 34.1468305 61 34.66 61.927051 34.1468305 62.3754175 35.1069002 63.427051 35.2366442 63.2254722 36.2769002 64 37 63.2254722 37.7230998 63.427051 38.7633558 62.3754175 38.8930998 61.927051 39.8531695"></polygon>
        <filter x="-50%" y="-50%" width="200%" height="200%" filterUnits="objectBoundingBox" id="filter-10">
            <feMorphology radius="0.5" operator="dilate" in="SourceAlpha" result="shadowSpreadOuter1"></feMorphology>
            <feOffset dx="0" dy="0" in="shadowSpreadOuter1" result="shadowOffsetOuter1"></feOffset>
            <feComposite in="shadowOffsetOuter1" in2="SourceAlpha" operator="out" result="shadowOffsetOuter1"></feComposite>
            <feColorMatrix values="0 0 0 0 0.149019608   0 0 0 0 0.145098039   0 0 0 0 0.215686275  0 0 0 1 0" type="matrix" in="shadowOffsetOuter1"></feColorMatrix>
        </filter>
        <polygon id="path-11" points="4.5 6.68499988 3.3353143 6.88074039 2.45250008 6.25829081 1.31801948 5.97487373 0.953626102 5.09249994 0.153333782 4.40586666 0.40500015 3.5 0.153333782 2.59413334 0.953626102 1.90750006 1.31801948 1.02512627 2.45250008 0.74170919 3.3353143 0.119259608 4.5 0.315000117 5.6646857 0.119259608 6.54749992 0.74170919 7.68198052 1.02512627 8.0463739 1.90750006 8.84666622 2.59413334 8.59499985 3.5 8.84666622 4.40586666 8.0463739 5.09249994 7.68198052 5.97487373 6.54749992 6.25829081 5.6646857 6.88074039"></polygon>
        <filter x="-50%" y="-50%" width="200%" height="200%" filterUnits="objectBoundingBox" id="filter-12">
            <feMorphology radius="0.5" operator="dilate" in="SourceAlpha" result="shadowSpreadOuter1"></feMorphology>
            <feOffset dx="0" dy="0" in="shadowSpreadOuter1" result="shadowOffsetOuter1"></feOffset>
            <feComposite in="shadowOffsetOuter1" in2="SourceAlpha" operator="out" result="shadowOffsetOuter1"></feComposite>
            <feColorMatrix values="0 0 0 0 0.816203773   0 0 0 0 0.00751322834   0 0 0 0 0.106696017  0 0 0 1 0" type="matrix" in="shadowOffsetOuter1"></feColorMatrix>
        </filter>
        <polygon id="path-13" points="4.5 6.68499988 3.3353143 6.88074039 2.45250008 6.25829081 1.31801948 5.97487373 0.953626102 5.09249994 0.153333782 4.40586666 0.40500015 3.5 0.153333782 2.59413334 0.953626102 1.90750006 1.31801948 1.02512627 2.45250008 0.74170919 3.3353143 0.119259608 4.5 0.315000117 5.6646857 0.119259608 6.54749992 0.74170919 7.68198052 1.02512627 8.0463739 1.90750006 8.84666622 2.59413334 8.59499985 3.5 8.84666622 4.40586666 8.0463739 5.09249994 7.68198052 5.97487373 6.54749992 6.25829081 5.6646857 6.88074039"></polygon>
        <filter x="-50%" y="-50%" width="200%" height="200%" filterUnits="objectBoundingBox" id="filter-14">
            <feMorphology radius="0.5" operator="dilate" in="SourceAlpha" result="shadowSpreadOuter1"></feMorphology>
            <feOffset dx="0" dy="0" in="shadowSpreadOuter1" result="shadowOffsetOuter1"></feOffset>
            <feComposite in="shadowOffsetOuter1" in2="SourceAlpha" operator="out" result="shadowOffsetOuter1"></feComposite>
            <feColorMatrix values="0 0 0 0 0.816203773   0 0 0 0 0.00751322834   0 0 0 0 0.106696017  0 0 0 1 0" type="matrix" in="shadowOffsetOuter1"></feColorMatrix>
        </filter>
        <polygon id="path-15" points="33.5 41.2300001 31.8004065 41.7308108 30.7197757 40.3266504 29.0504065 39.7328189 29.0015026 37.9616504 28 36.5 29.0015026 35.0383496 29.0504065 33.2671811 30.7197757 32.6733496 31.8004065 31.2691892 33.5 31.7699999 35.1995935 31.2691892 36.2802243 32.6733496 37.9495935 33.2671811 37.9984974 35.0383496 39 36.5 37.9984974 37.9616504 37.9495935 39.7328189 36.2802243 40.3266504 35.1995935 41.7308108"></polygon>
        <filter x="-50%" y="-50%" width="200%" height="200%" filterUnits="objectBoundingBox" id="filter-16">
            <feMorphology radius="0.75" operator="dilate" in="SourceAlpha" result="shadowSpreadOuter1"></feMorphology>
            <feOffset dx="0" dy="0" in="shadowSpreadOuter1" result="shadowOffsetOuter1"></feOffset>
            <feComposite in="shadowOffsetOuter1" in2="SourceAlpha" operator="out" result="shadowOffsetOuter1"></feComposite>
            <feColorMatrix values="0 0 0 0 0.909803922   0 0 0 0 0.866666667   0 0 0 0 0.698039216  0 0 0 1 0" type="matrix" in="shadowOffsetOuter1"></feColorMatrix>
        </filter>
    </defs>
    <g id="IMM-desktop" stroke="none" stroke-width="1" fill="none" fill-rule="evenodd">
        <g id="catalogos/tasa-cambio">
            <use id="Oval-4" stroke="#CCCCCC" mask="url(#mask-2)" stroke-width="4" fill="#FFFFFF" xlink:href="#path-1"></use>
            <circle id="Oval-4-Copy" fill="#4FBA97" cx="55" cy="55" r="50"></circle>
            <g id="Group-46" transform="translate(22.000000, 33.000000)">
                <rect id="Rectangle-58" fill="#FFFFFF" x="0" y="0" width="66" height="44" rx="2"></rect>
                <g id="Group-42" transform="translate(6.500000, 21.500000) rotate(90.000000) translate(-6.500000, -21.500000) translate(-7.000000, 19.000000)" stroke="#262537" stroke-width="0.5" fill="#E8DDB2">
                    <path d="M2.61805325,2.5 C2.85557322,2.23462175 3,1.88417722 3,1.5 C3,0.671572875 2.32842712,0 1.5,0 C0.671572875,0 0,0.671572875 0,1.5 C0,1.88417722 0.144426784,2.23462175 0.381946746,2.5 C0.144426784,2.76537825 0,3.11582278 0,3.5 C0,4.32842712 0.671572875,5 1.5,5 C2.32842712,5 3,4.32842712 3,3.5 C3,3.11582278 2.85557322,2.76537825 2.61805325,2.5 Z" id="Combined-Shape-Copy-43"></path>
                    <path d="M5.61805325,2.5 C5.85557322,2.23462175 6,1.88417722 6,1.5 C6,0.671572875 5.32842712,0 4.5,0 C3.67157288,0 3,0.671572875 3,1.5 C3,1.88417722 3.14442678,2.23462175 3.38194675,2.5 C3.14442678,2.76537825 3,3.11582278 3,3.5 C3,4.32842712 3.67157288,5 4.5,5 C5.32842712,5 6,4.32842712 6,3.5 C6,3.11582278 5.85557322,2.76537825 5.61805325,2.5 Z" id="Combined-Shape-Copy-44"></path>
                    <path d="M8.61805325,2.5 C8.85557322,2.23462175 9,1.88417722 9,1.5 C9,0.671572875 8.32842712,0 7.5,0 C6.67157288,0 6,0.671572875 6,1.5 C6,1.88417722 6.14442678,2.23462175 6.38194675,2.5 C6.14442678,2.76537825 6,3.11582278 6,3.5 C6,4.32842712 6.67157288,5 7.5,5 C8.32842712,5 9,4.32842712 9,3.5 C9,3.11582278 8.85557322,2.76537825 8.61805325,2.5 Z" id="Combined-Shape-Copy-45"></path>
                    <path d="M11.6180533,2.5 C11.8555732,2.23462175 12,1.88417722 12,1.5 C12,0.671572875 11.3284271,0 10.5,0 C9.67157288,0 9,0.671572875 9,1.5 C9,1.88417722 9.14442678,2.23462175 9.38194675,2.5 C9.14442678,2.76537825 9,3.11582278 9,3.5 C9,4.32842712 9.67157288,5 10.5,5 C11.3284271,5 12,4.32842712 12,3.5 C12,3.11582278 11.8555732,2.76537825 11.6180533,2.5 Z" id="Combined-Shape-Copy-46"></path>
                    <path d="M14.6180533,2.5 C14.8555732,2.23462175 15,1.88417722 15,1.5 C15,0.671572875 14.3284271,0 13.5,0 C12.6715729,0 12,0.671572875 12,1.5 C12,1.88417722 12.1444268,2.23462175 12.3819467,2.5 C12.1444268,2.76537825 12,3.11582278 12,3.5 C12,4.32842712 12.6715729,5 13.5,5 C14.3284271,5 15,4.32842712 15,3.5 C15,3.11582278 14.8555732,2.76537825 14.6180533,2.5 Z" id="Combined-Shape-Copy-47"></path>
                    <path d="M17.6180533,2.5 C17.8555732,2.23462175 18,1.88417722 18,1.5 C18,0.671572875 17.3284271,0 16.5,0 C15.6715729,0 15,0.671572875 15,1.5 C15,1.88417722 15.1444268,2.23462175 15.3819467,2.5 C15.1444268,2.76537825 15,3.11582278 15,3.5 C15,4.32842712 15.6715729,5 16.5,5 C17.3284271,5 18,4.32842712 18,3.5 C18,3.11582278 17.8555732,2.76537825 17.6180533,2.5 Z" id="Combined-Shape-Copy-48"></path>
                    <path d="M20.6180533,2.5 C20.8555732,2.23462175 21,1.88417722 21,1.5 C21,0.671572875 20.3284271,0 19.5,0 C18.6715729,0 18,0.671572875 18,1.5 C18,1.88417722 18.1444268,2.23462175 18.3819467,2.5 C18.1444268,2.76537825 18,3.11582278 18,3.5 C18,4.32842712 18.6715729,5 19.5,5 C20.3284271,5 21,4.32842712 21,3.5 C21,3.11582278 20.8555732,2.76537825 20.6180533,2.5 Z" id="Combined-Shape-Copy-49"></path>
                    <path d="M23.6180533,2.5 C23.8555732,2.23462175 24,1.88417722 24,1.5 C24,0.671572875 23.3284271,0 22.5,0 C21.6715729,0 21,0.671572875 21,1.5 C21,1.88417722 21.1444268,2.23462175 21.3819467,2.5 C21.1444268,2.76537825 21,3.11582278 21,3.5 C21,4.32842712 21.6715729,5 22.5,5 C23.3284271,5 24,4.32842712 24,3.5 C24,3.11582278 23.8555732,2.76537825 23.6180533,2.5 Z" id="Combined-Shape-Copy-50"></path>
                    <path d="M26.6180533,2.5 C26.8555732,2.23462175 27,1.88417722 27,1.5 C27,0.671572875 26.3284271,0 25.5,0 C24.6715729,0 24,0.671572875 24,1.5 C24,1.88417722 24.1444268,2.23462175 24.3819467,2.5 C24.1444268,2.76537825 24,3.11582278 24,3.5 C24,4.32842712 24.6715729,5 25.5,5 C26.3284271,5 27,4.32842712 27,3.5 C27,3.11582278 26.8555732,2.76537825 26.6180533,2.5 Z" id="Combined-Shape-Copy-51"></path>
                </g>
                <g id="Group-42-Copy" transform="translate(60.500000, 21.500000) rotate(90.000000) translate(-60.500000, -21.500000) translate(47.000000, 19.000000)" stroke="#262537" stroke-width="0.5" fill="#E8DDB2">
                    <path d="M2.61805325,2.5 C2.85557322,2.23462175 3,1.88417722 3,1.5 C3,0.671572875 2.32842712,0 1.5,0 C0.671572875,0 0,0.671572875 0,1.5 C0,1.88417722 0.144426784,2.23462175 0.381946746,2.5 C0.144426784,2.76537825 0,3.11582278 0,3.5 C0,4.32842712 0.671572875,5 1.5,5 C2.32842712,5 3,4.32842712 3,3.5 C3,3.11582278 2.85557322,2.76537825 2.61805325,2.5 Z" id="Combined-Shape-Copy-43"></path>
                    <path d="M5.61805325,2.5 C5.85557322,2.23462175 6,1.88417722 6,1.5 C6,0.671572875 5.32842712,0 4.5,0 C3.67157288,0 3,0.671572875 3,1.5 C3,1.88417722 3.14442678,2.23462175 3.38194675,2.5 C3.14442678,2.76537825 3,3.11582278 3,3.5 C3,4.32842712 3.67157288,5 4.5,5 C5.32842712,5 6,4.32842712 6,3.5 C6,3.11582278 5.85557322,2.76537825 5.61805325,2.5 Z" id="Combined-Shape-Copy-44"></path>
                    <path d="M8.61805325,2.5 C8.85557322,2.23462175 9,1.88417722 9,1.5 C9,0.671572875 8.32842712,0 7.5,0 C6.67157288,0 6,0.671572875 6,1.5 C6,1.88417722 6.14442678,2.23462175 6.38194675,2.5 C6.14442678,2.76537825 6,3.11582278 6,3.5 C6,4.32842712 6.67157288,5 7.5,5 C8.32842712,5 9,4.32842712 9,3.5 C9,3.11582278 8.85557322,2.76537825 8.61805325,2.5 Z" id="Combined-Shape-Copy-45"></path>
                    <path d="M11.6180533,2.5 C11.8555732,2.23462175 12,1.88417722 12,1.5 C12,0.671572875 11.3284271,0 10.5,0 C9.67157288,0 9,0.671572875 9,1.5 C9,1.88417722 9.14442678,2.23462175 9.38194675,2.5 C9.14442678,2.76537825 9,3.11582278 9,3.5 C9,4.32842712 9.67157288,5 10.5,5 C11.3284271,5 12,4.32842712 12,3.5 C12,3.11582278 11.8555732,2.76537825 11.6180533,2.5 Z" id="Combined-Shape-Copy-46"></path>
                    <path d="M14.6180533,2.5 C14.8555732,2.23462175 15,1.88417722 15,1.5 C15,0.671572875 14.3284271,0 13.5,0 C12.6715729,0 12,0.671572875 12,1.5 C12,1.88417722 12.1444268,2.23462175 12.3819467,2.5 C12.1444268,2.76537825 12,3.11582278 12,3.5 C12,4.32842712 12.6715729,5 13.5,5 C14.3284271,5 15,4.32842712 15,3.5 C15,3.11582278 14.8555732,2.76537825 14.6180533,2.5 Z" id="Combined-Shape-Copy-47"></path>
                    <path d="M17.6180533,2.5 C17.8555732,2.23462175 18,1.88417722 18,1.5 C18,0.671572875 17.3284271,0 16.5,0 C15.6715729,0 15,0.671572875 15,1.5 C15,1.88417722 15.1444268,2.23462175 15.3819467,2.5 C15.1444268,2.76537825 15,3.11582278 15,3.5 C15,4.32842712 15.6715729,5 16.5,5 C17.3284271,5 18,4.32842712 18,3.5 C18,3.11582278 17.8555732,2.76537825 17.6180533,2.5 Z" id="Combined-Shape-Copy-48"></path>
                    <path d="M20.6180533,2.5 C20.8555732,2.23462175 21,1.88417722 21,1.5 C21,0.671572875 20.3284271,0 19.5,0 C18.6715729,0 18,0.671572875 18,1.5 C18,1.88417722 18.1444268,2.23462175 18.3819467,2.5 C18.1444268,2.76537825 18,3.11582278 18,3.5 C18,4.32842712 18.6715729,5 19.5,5 C20.3284271,5 21,4.32842712 21,3.5 C21,3.11582278 20.8555732,2.76537825 20.6180533,2.5 Z" id="Combined-Shape-Copy-49"></path>
                    <path d="M23.6180533,2.5 C23.8555732,2.23462175 24,1.88417722 24,1.5 C24,0.671572875 23.3284271,0 22.5,0 C21.6715729,0 21,0.671572875 21,1.5 C21,1.88417722 21.1444268,2.23462175 21.3819467,2.5 C21.1444268,2.76537825 21,3.11582278 21,3.5 C21,4.32842712 21.6715729,5 22.5,5 C23.3284271,5 24,4.32842712 24,3.5 C24,3.11582278 23.8555732,2.76537825 23.6180533,2.5 Z" id="Combined-Shape-Copy-50"></path>
                    <path d="M26.6180533,2.5 C26.8555732,2.23462175 27,1.88417722 27,1.5 C27,0.671572875 26.3284271,0 25.5,0 C24.6715729,0 24,0.671572875 24,1.5 C24,1.88417722 24.1444268,2.23462175 24.3819467,2.5 C24.1444268,2.76537825 24,3.11582278 24,3.5 C24,4.32842712 24.6715729,5 25.5,5 C26.3284271,5 27,4.32842712 27,3.5 C27,3.11582278 26.8555732,2.76537825 26.6180533,2.5 Z" id="Combined-Shape-Copy-51"></path>
                </g>
                <g id="Group-44" transform="translate(8.000000, 4.000000)" stroke="#262537" stroke-width="0.5" fill="#E8DDB2">
                    <path d="M5.61805325,2.5 C5.85557322,2.23462175 6,1.88417722 6,1.5 C6,0.671572875 5.32842712,0 4.5,0 C3.67157288,0 3,0.671572875 3,1.5 C3,1.88417722 3.14442678,2.23462175 3.38194675,2.5 C3.14442678,2.76537825 3,3.11582278 3,3.5 C3,4.32842712 3.67157288,5 4.5,5 C5.32842712,5 6,4.32842712 6,3.5 C6,3.11582278 5.85557322,2.76537825 5.61805325,2.5 Z" id="Combined-Shape"></path>
                    <path d="M2.61805325,2.5 C2.85557322,2.23462175 3,1.88417722 3,1.5 C3,0.671572875 2.32842712,0 1.5,0 C0.671572875,0 0,0.671572875 0,1.5 C0,1.88417722 0.144426784,2.23462175 0.381946746,2.5 C0.144426784,2.76537825 0,3.11582278 0,3.5 C0,4.32842712 0.671572875,5 1.5,5 C2.32842712,5 3,4.32842712 3,3.5 C3,3.11582278 2.85557322,2.76537825 2.61805325,2.5 Z" id="Combined-Shape-Copy-25"></path>
                    <path d="M8.61805325,2.5 C8.85557322,2.23462175 9,1.88417722 9,1.5 C9,0.671572875 8.32842712,0 7.5,0 C6.67157288,0 6,0.671572875 6,1.5 C6,1.88417722 6.14442678,2.23462175 6.38194675,2.5 C6.14442678,2.76537825 6,3.11582278 6,3.5 C6,4.32842712 6.67157288,5 7.5,5 C8.32842712,5 9,4.32842712 9,3.5 C9,3.11582278 8.85557322,2.76537825 8.61805325,2.5 Z" id="Combined-Shape-Copy-10"></path>
                    <path d="M11.6180533,2.5 C11.8555732,2.23462175 12,1.88417722 12,1.5 C12,0.671572875 11.3284271,0 10.5,0 C9.67157288,0 9,0.671572875 9,1.5 C9,1.88417722 9.14442678,2.23462175 9.38194675,2.5 C9.14442678,2.76537825 9,3.11582278 9,3.5 C9,4.32842712 9.67157288,5 10.5,5 C11.3284271,5 12,4.32842712 12,3.5 C12,3.11582278 11.8555732,2.76537825 11.6180533,2.5 Z" id="Combined-Shape-Copy-11"></path>
                    <path d="M14.6180533,2.5 C14.8555732,2.23462175 15,1.88417722 15,1.5 C15,0.671572875 14.3284271,0 13.5,0 C12.6715729,0 12,0.671572875 12,1.5 C12,1.88417722 12.1444268,2.23462175 12.3819467,2.5 C12.1444268,2.76537825 12,3.11582278 12,3.5 C12,4.32842712 12.6715729,5 13.5,5 C14.3284271,5 15,4.32842712 15,3.5 C15,3.11582278 14.8555732,2.76537825 14.6180533,2.5 Z" id="Combined-Shape-Copy-12"></path>
                    <path d="M17.6180533,2.5 C17.8555732,2.23462175 18,1.88417722 18,1.5 C18,0.671572875 17.3284271,0 16.5,0 C15.6715729,0 15,0.671572875 15,1.5 C15,1.88417722 15.1444268,2.23462175 15.3819467,2.5 C15.1444268,2.76537825 15,3.11582278 15,3.5 C15,4.32842712 15.6715729,5 16.5,5 C17.3284271,5 18,4.32842712 18,3.5 C18,3.11582278 17.8555732,2.76537825 17.6180533,2.5 Z" id="Combined-Shape-Copy-13"></path>
                    <path d="M20.6180533,2.5 C20.8555732,2.23462175 21,1.88417722 21,1.5 C21,0.671572875 20.3284271,0 19.5,0 C18.6715729,0 18,0.671572875 18,1.5 C18,1.88417722 18.1444268,2.23462175 18.3819467,2.5 C18.1444268,2.76537825 18,3.11582278 18,3.5 C18,4.32842712 18.6715729,5 19.5,5 C20.3284271,5 21,4.32842712 21,3.5 C21,3.11582278 20.8555732,2.76537825 20.6180533,2.5 Z" id="Combined-Shape-Copy-14"></path>
                    <path d="M23.6180533,2.5 C23.8555732,2.23462175 24,1.88417722 24,1.5 C24,0.671572875 23.3284271,0 22.5,0 C21.6715729,0 21,0.671572875 21,1.5 C21,1.88417722 21.1444268,2.23462175 21.3819467,2.5 C21.1444268,2.76537825 21,3.11582278 21,3.5 C21,4.32842712 21.6715729,5 22.5,5 C23.3284271,5 24,4.32842712 24,3.5 C24,3.11582278 23.8555732,2.76537825 23.6180533,2.5 Z" id="Combined-Shape-Copy-15"></path>
                    <path d="M26.6180533,2.5 C26.8555732,2.23462175 27,1.88417722 27,1.5 C27,0.671572875 26.3284271,0 25.5,0 C24.6715729,0 24,0.671572875 24,1.5 C24,1.88417722 24.1444268,2.23462175 24.3819467,2.5 C24.1444268,2.76537825 24,3.11582278 24,3.5 C24,4.32842712 24.6715729,5 25.5,5 C26.3284271,5 27,4.32842712 27,3.5 C27,3.11582278 26.8555732,2.76537825 26.6180533,2.5 Z" id="Combined-Shape-Copy-16"></path>
                    <path d="M29.6180533,2.5 C29.8555732,2.23462175 30,1.88417722 30,1.5 C30,0.671572875 29.3284271,0 28.5,0 C27.6715729,0 27,0.671572875 27,1.5 C27,1.88417722 27.1444268,2.23462175 27.3819467,2.5 C27.1444268,2.76537825 27,3.11582278 27,3.5 C27,4.32842712 27.6715729,5 28.5,5 C29.3284271,5 30,4.32842712 30,3.5 C30,3.11582278 29.8555732,2.76537825 29.6180533,2.5 Z" id="Combined-Shape-Copy-17"></path>
                    <path d="M32.6180533,2.5 C32.8555732,2.23462175 33,1.88417722 33,1.5 C33,0.671572875 32.3284271,0 31.5,0 C30.6715729,0 30,0.671572875 30,1.5 C30,1.88417722 30.1444268,2.23462175 30.3819467,2.5 C30.1444268,2.76537825 30,3.11582278 30,3.5 C30,4.32842712 30.6715729,5 31.5,5 C32.3284271,5 33,4.32842712 33,3.5 C33,3.11582278 32.8555732,2.76537825 32.6180533,2.5 Z" id="Combined-Shape-Copy-18"></path>
                    <path d="M35.6180533,2.5 C35.8555732,2.23462175 36,1.88417722 36,1.5 C36,0.671572875 35.3284271,0 34.5,0 C33.6715729,0 33,0.671572875 33,1.5 C33,1.88417722 33.1444268,2.23462175 33.3819467,2.5 C33.1444268,2.76537825 33,3.11582278 33,3.5 C33,4.32842712 33.6715729,5 34.5,5 C35.3284271,5 36,4.32842712 36,3.5 C36,3.11582278 35.8555732,2.76537825 35.6180533,2.5 Z" id="Combined-Shape-Copy-19"></path>
                    <path d="M38.6180533,2.5 C38.8555732,2.23462175 39,1.88417722 39,1.5 C39,0.671572875 38.3284271,0 37.5,0 C36.6715729,0 36,0.671572875 36,1.5 C36,1.88417722 36.1444268,2.23462175 36.3819467,2.5 C36.1444268,2.76537825 36,3.11582278 36,3.5 C36,4.32842712 36.6715729,5 37.5,5 C38.3284271,5 39,4.32842712 39,3.5 C39,3.11582278 38.8555732,2.76537825 38.6180533,2.5 Z" id="Combined-Shape-Copy-20"></path>
                    <path d="M41.6180533,2.5 C41.8555732,2.23462175 42,1.88417722 42,1.5 C42,0.671572875 41.3284271,0 40.5,0 C39.6715729,0 39,0.671572875 39,1.5 C39,1.88417722 39.1444268,2.23462175 39.3819467,2.5 C39.1444268,2.76537825 39,3.11582278 39,3.5 C39,4.32842712 39.6715729,5 40.5,5 C41.3284271,5 42,4.32842712 42,3.5 C42,3.11582278 41.8555732,2.76537825 41.6180533,2.5 Z" id="Combined-Shape-Copy-21"></path>
                    <path d="M44.6180533,2.5 C44.8555732,2.23462175 45,1.88417722 45,1.5 C45,0.671572875 44.3284271,0 43.5,0 C42.6715729,0 42,0.671572875 42,1.5 C42,1.88417722 42.1444268,2.23462175 42.3819467,2.5 C42.1444268,2.76537825 42,3.11582278 42,3.5 C42,4.32842712 42.6715729,5 43.5,5 C44.3284271,5 45,4.32842712 45,3.5 C45,3.11582278 44.8555732,2.76537825 44.6180533,2.5 Z" id="Combined-Shape-Copy-22"></path>
                    <path d="M47.6180533,2.5 C47.8555732,2.23462175 48,1.88417722 48,1.5 C48,0.671572875 47.3284271,0 46.5,0 C45.6715729,0 45,0.671572875 45,1.5 C45,1.88417722 45.1444268,2.23462175 45.3819467,2.5 C45.1444268,2.76537825 45,3.11582278 45,3.5 C45,4.32842712 45.6715729,5 46.5,5 C47.3284271,5 48,4.32842712 48,3.5 C48,3.11582278 47.8555732,2.76537825 47.6180533,2.5 Z" id="Combined-Shape-Copy-23"></path>
                    <path d="M50.6180533,2.5 C50.8555732,2.23462175 51,1.88417722 51,1.5 C51,0.671572875 50.3284271,0 49.5,0 C48.6715729,0 48,0.671572875 48,1.5 C48,1.88417722 48.1444268,2.23462175 48.3819467,2.5 C48.1444268,2.76537825 48,3.11582278 48,3.5 C48,4.32842712 48.6715729,5 49.5,5 C50.3284271,5 51,4.32842712 51,3.5 C51,3.11582278 50.8555732,2.76537825 50.6180533,2.5 Z" id="Combined-Shape-Copy-24"></path>
                </g>
                <g id="Star">
                    <use fill="black" fill-opacity="1" filter="url(#filter-4)" xlink:href="#path-3"></use>
                    <use stroke="#FFFFFF" stroke-width="0.5" fill="#262537" fill-rule="evenodd" xlink:href="#path-3"></use>
                </g>
                <g id="Star-Copy-2">
                    <use fill="black" fill-opacity="1" filter="url(#filter-6)" xlink:href="#path-5"></use>
                    <use stroke="#FFFFFF" stroke-width="0.5" fill="#262537" fill-rule="evenodd" xlink:href="#path-5"></use>
                </g>
                <g id="Group-45" transform="translate(8.000000, 34.000000)" stroke="#262537" stroke-width="0.5" fill="#E8DDB2">
                    <path d="M5.61805325,2.5 C5.85557322,2.23462175 6,1.88417722 6,1.5 C6,0.671572875 5.32842712,0 4.5,0 C3.67157288,0 3,0.671572875 3,1.5 C3,1.88417722 3.14442678,2.23462175 3.38194675,2.5 C3.14442678,2.76537825 3,3.11582278 3,3.5 C3,4.32842712 3.67157288,5 4.5,5 C5.32842712,5 6,4.32842712 6,3.5 C6,3.11582278 5.85557322,2.76537825 5.61805325,2.5 Z" id="Combined-Shape-Copy-42"></path>
                    <path d="M2.61805325,2.5 C2.85557322,2.23462175 3,1.88417722 3,1.5 C3,0.671572875 2.32842712,0 1.5,0 C0.671572875,0 0,0.671572875 0,1.5 C0,1.88417722 0.144426784,2.23462175 0.381946746,2.5 C0.144426784,2.76537825 0,3.11582278 0,3.5 C0,4.32842712 0.671572875,5 1.5,5 C2.32842712,5 3,4.32842712 3,3.5 C3,3.11582278 2.85557322,2.76537825 2.61805325,2.5 Z" id="Combined-Shape-Copy-41"></path>
                    <path d="M8.61805325,2.5 C8.85557322,2.23462175 9,1.88417722 9,1.5 C9,0.671572875 8.32842712,0 7.5,0 C6.67157288,0 6,0.671572875 6,1.5 C6,1.88417722 6.14442678,2.23462175 6.38194675,2.5 C6.14442678,2.76537825 6,3.11582278 6,3.5 C6,4.32842712 6.67157288,5 7.5,5 C8.32842712,5 9,4.32842712 9,3.5 C9,3.11582278 8.85557322,2.76537825 8.61805325,2.5 Z" id="Combined-Shape-Copy-40"></path>
                    <path d="M11.6180533,2.5 C11.8555732,2.23462175 12,1.88417722 12,1.5 C12,0.671572875 11.3284271,0 10.5,0 C9.67157288,0 9,0.671572875 9,1.5 C9,1.88417722 9.14442678,2.23462175 9.38194675,2.5 C9.14442678,2.76537825 9,3.11582278 9,3.5 C9,4.32842712 9.67157288,5 10.5,5 C11.3284271,5 12,4.32842712 12,3.5 C12,3.11582278 11.8555732,2.76537825 11.6180533,2.5 Z" id="Combined-Shape-Copy-39"></path>
                    <path d="M14.6180533,2.5 C14.8555732,2.23462175 15,1.88417722 15,1.5 C15,0.671572875 14.3284271,0 13.5,0 C12.6715729,0 12,0.671572875 12,1.5 C12,1.88417722 12.1444268,2.23462175 12.3819467,2.5 C12.1444268,2.76537825 12,3.11582278 12,3.5 C12,4.32842712 12.6715729,5 13.5,5 C14.3284271,5 15,4.32842712 15,3.5 C15,3.11582278 14.8555732,2.76537825 14.6180533,2.5 Z" id="Combined-Shape-Copy-38"></path>
                    <path d="M17.6180533,2.5 C17.8555732,2.23462175 18,1.88417722 18,1.5 C18,0.671572875 17.3284271,0 16.5,0 C15.6715729,0 15,0.671572875 15,1.5 C15,1.88417722 15.1444268,2.23462175 15.3819467,2.5 C15.1444268,2.76537825 15,3.11582278 15,3.5 C15,4.32842712 15.6715729,5 16.5,5 C17.3284271,5 18,4.32842712 18,3.5 C18,3.11582278 17.8555732,2.76537825 17.6180533,2.5 Z" id="Combined-Shape-Copy-37"></path>
                    <path d="M20.6180533,2.5 C20.8555732,2.23462175 21,1.88417722 21,1.5 C21,0.671572875 20.3284271,0 19.5,0 C18.6715729,0 18,0.671572875 18,1.5 C18,1.88417722 18.1444268,2.23462175 18.3819467,2.5 C18.1444268,2.76537825 18,3.11582278 18,3.5 C18,4.32842712 18.6715729,5 19.5,5 C20.3284271,5 21,4.32842712 21,3.5 C21,3.11582278 20.8555732,2.76537825 20.6180533,2.5 Z" id="Combined-Shape-Copy-36"></path>
                    <path d="M23.6180533,2.5 C23.8555732,2.23462175 24,1.88417722 24,1.5 C24,0.671572875 23.3284271,0 22.5,0 C21.6715729,0 21,0.671572875 21,1.5 C21,1.88417722 21.1444268,2.23462175 21.3819467,2.5 C21.1444268,2.76537825 21,3.11582278 21,3.5 C21,4.32842712 21.6715729,5 22.5,5 C23.3284271,5 24,4.32842712 24,3.5 C24,3.11582278 23.8555732,2.76537825 23.6180533,2.5 Z" id="Combined-Shape-Copy-35"></path>
                    <path d="M26.6180533,2.5 C26.8555732,2.23462175 27,1.88417722 27,1.5 C27,0.671572875 26.3284271,0 25.5,0 C24.6715729,0 24,0.671572875 24,1.5 C24,1.88417722 24.1444268,2.23462175 24.3819467,2.5 C24.1444268,2.76537825 24,3.11582278 24,3.5 C24,4.32842712 24.6715729,5 25.5,5 C26.3284271,5 27,4.32842712 27,3.5 C27,3.11582278 26.8555732,2.76537825 26.6180533,2.5 Z" id="Combined-Shape-Copy-34"></path>
                    <path d="M29.6180533,2.5 C29.8555732,2.23462175 30,1.88417722 30,1.5 C30,0.671572875 29.3284271,0 28.5,0 C27.6715729,0 27,0.671572875 27,1.5 C27,1.88417722 27.1444268,2.23462175 27.3819467,2.5 C27.1444268,2.76537825 27,3.11582278 27,3.5 C27,4.32842712 27.6715729,5 28.5,5 C29.3284271,5 30,4.32842712 30,3.5 C30,3.11582278 29.8555732,2.76537825 29.6180533,2.5 Z" id="Combined-Shape-Copy-33"></path>
                    <path d="M32.6180533,2.5 C32.8555732,2.23462175 33,1.88417722 33,1.5 C33,0.671572875 32.3284271,0 31.5,0 C30.6715729,0 30,0.671572875 30,1.5 C30,1.88417722 30.1444268,2.23462175 30.3819467,2.5 C30.1444268,2.76537825 30,3.11582278 30,3.5 C30,4.32842712 30.6715729,5 31.5,5 C32.3284271,5 33,4.32842712 33,3.5 C33,3.11582278 32.8555732,2.76537825 32.6180533,2.5 Z" id="Combined-Shape-Copy-32"></path>
                    <path d="M35.6180533,2.5 C35.8555732,2.23462175 36,1.88417722 36,1.5 C36,0.671572875 35.3284271,0 34.5,0 C33.6715729,0 33,0.671572875 33,1.5 C33,1.88417722 33.1444268,2.23462175 33.3819467,2.5 C33.1444268,2.76537825 33,3.11582278 33,3.5 C33,4.32842712 33.6715729,5 34.5,5 C35.3284271,5 36,4.32842712 36,3.5 C36,3.11582278 35.8555732,2.76537825 35.6180533,2.5 Z" id="Combined-Shape-Copy-31"></path>
                    <path d="M38.6180533,2.5 C38.8555732,2.23462175 39,1.88417722 39,1.5 C39,0.671572875 38.3284271,0 37.5,0 C36.6715729,0 36,0.671572875 36,1.5 C36,1.88417722 36.1444268,2.23462175 36.3819467,2.5 C36.1444268,2.76537825 36,3.11582278 36,3.5 C36,4.32842712 36.6715729,5 37.5,5 C38.3284271,5 39,4.32842712 39,3.5 C39,3.11582278 38.8555732,2.76537825 38.6180533,2.5 Z" id="Combined-Shape-Copy-30"></path>
                    <path d="M41.6180533,2.5 C41.8555732,2.23462175 42,1.88417722 42,1.5 C42,0.671572875 41.3284271,0 40.5,0 C39.6715729,0 39,0.671572875 39,1.5 C39,1.88417722 39.1444268,2.23462175 39.3819467,2.5 C39.1444268,2.76537825 39,3.11582278 39,3.5 C39,4.32842712 39.6715729,5 40.5,5 C41.3284271,5 42,4.32842712 42,3.5 C42,3.11582278 41.8555732,2.76537825 41.6180533,2.5 Z" id="Combined-Shape-Copy-29"></path>
                    <path d="M44.6180533,2.5 C44.8555732,2.23462175 45,1.88417722 45,1.5 C45,0.671572875 44.3284271,0 43.5,0 C42.6715729,0 42,0.671572875 42,1.5 C42,1.88417722 42.1444268,2.23462175 42.3819467,2.5 C42.1444268,2.76537825 42,3.11582278 42,3.5 C42,4.32842712 42.6715729,5 43.5,5 C44.3284271,5 45,4.32842712 45,3.5 C45,3.11582278 44.8555732,2.76537825 44.6180533,2.5 Z" id="Combined-Shape-Copy-28"></path>
                    <path d="M47.6180533,2.5 C47.8555732,2.23462175 48,1.88417722 48,1.5 C48,0.671572875 47.3284271,0 46.5,0 C45.6715729,0 45,0.671572875 45,1.5 C45,1.88417722 45.1444268,2.23462175 45.3819467,2.5 C45.1444268,2.76537825 45,3.11582278 45,3.5 C45,4.32842712 45.6715729,5 46.5,5 C47.3284271,5 48,4.32842712 48,3.5 C48,3.11582278 47.8555732,2.76537825 47.6180533,2.5 Z" id="Combined-Shape-Copy-27"></path>
                    <path d="M50.6180533,2.5 C50.8555732,2.23462175 51,1.88417722 51,1.5 C51,0.671572875 50.3284271,0 49.5,0 C48.6715729,0 48,0.671572875 48,1.5 C48,1.88417722 48.1444268,2.23462175 48.3819467,2.5 C48.1444268,2.76537825 48,3.11582278 48,3.5 C48,4.32842712 48.6715729,5 49.5,5 C50.3284271,5 51,4.32842712 51,3.5 C51,3.11582278 50.8555732,2.76537825 50.6180533,2.5 Z" id="Combined-Shape-Copy-26"></path>
                </g>
                <g id="Star-Copy">
                    <use fill="black" fill-opacity="1" filter="url(#filter-8)" xlink:href="#path-7"></use>
                    <use stroke="#FFFFFF" stroke-width="0.5" fill="#262537" fill-rule="evenodd" xlink:href="#path-7"></use>
                </g>
                <g id="Star-Copy-3">
                    <use fill="black" fill-opacity="1" filter="url(#filter-10)" xlink:href="#path-9"></use>
                    <use stroke="#FFFFFF" stroke-width="0.5" fill="#262537" fill-rule="evenodd" xlink:href="#path-9"></use>
                </g>
                <rect id="Rectangle-59" fill-opacity="0.3" fill="#262537" x="23" y="15" width="2" height="4"></rect>
                <rect id="Rectangle-59-Copy" fill-opacity="0.3" fill="#262537" x="26" y="16" width="2" height="3"></rect>
                <rect id="Rectangle-59-Copy-2" fill-opacity="0.3" fill="#262537" x="29" y="16" width="2" height="3"></rect>
                <rect id="Rectangle-59-Copy-3" fill-opacity="0.3" fill="#262537" x="32" y="16" width="2" height="3"></rect>
                <rect id="Rectangle-59-Copy-4" fill-opacity="0.3" fill="#262537" x="35" y="16" width="2" height="3"></rect>
                <rect id="Rectangle-59-Copy-5" fill-opacity="0.3" fill="#262537" x="38" y="16" width="2" height="3"></rect>
                <rect id="Rectangle-59-Copy-6" fill-opacity="0.3" fill="#262537" x="41" y="16" width="2" height="3"></rect>
                <rect id="Rectangle-60" fill-opacity="0.3" fill="#262537" x="19" y="21" width="1" height="3"></rect>
                <rect id="Rectangle-60-Copy" fill-opacity="0.3" fill="#262537" x="21" y="22" width="1" height="2"></rect>
                <rect id="Rectangle-60-Copy-10" fill-opacity="0.3" fill="#262537" x="15" y="26" width="1" height="2"></rect>
                <rect id="Rectangle-60-Copy-19" fill-opacity="0.3" fill="#262537" x="23" y="26" width="1" height="2"></rect>
                <rect id="Rectangle-60-Copy-27" fill-opacity="0.3" fill="#262537" x="35" y="26" width="1" height="2"></rect>
                <rect id="Rectangle-60-Copy-23" fill-opacity="0.3" fill="#262537" x="45" y="26" width="1" height="2"></rect>
                <rect id="Rectangle-60-Copy-6" fill-opacity="0.3" fill="#262537" x="31" y="22" width="1" height="2"></rect>
                <rect id="Rectangle-60-Copy-2" fill-opacity="0.3" fill="#262537" x="23" y="22" width="1" height="2"></rect>
                <rect id="Rectangle-60-Copy-16" fill-opacity="0.3" fill="#262537" x="17" y="26" width="1" height="2"></rect>
                <rect id="Rectangle-60-Copy-20" fill-opacity="0.3" fill="#262537" x="25" y="26" width="1" height="2"></rect>
                <rect id="Rectangle-60-Copy-28" fill-opacity="0.3" fill="#262537" x="37" y="26" width="1" height="2"></rect>
                <rect id="Rectangle-60-Copy-24" fill-opacity="0.3" fill="#262537" x="47" y="26" width="1" height="2"></rect>
                <rect id="Rectangle-60-Copy-7" fill-opacity="0.3" fill="#262537" x="33" y="22" width="1" height="2"></rect>
                <rect id="Rectangle-60-Copy-3" fill-opacity="0.3" fill="#262537" x="25" y="22" width="1" height="2"></rect>
                <rect id="Rectangle-60-Copy-17" fill-opacity="0.3" fill="#262537" x="19" y="26" width="1" height="2"></rect>
                <rect id="Rectangle-60-Copy-21" fill-opacity="0.3" fill="#262537" x="27" y="26" width="1" height="2"></rect>
                <rect id="Rectangle-60-Copy-29" fill-opacity="0.3" fill="#262537" x="39" y="26" width="1" height="2"></rect>
                <rect id="Rectangle-60-Copy-25" fill-opacity="0.3" fill="#262537" x="49" y="26" width="1" height="2"></rect>
                <rect id="Rectangle-60-Copy-8" fill-opacity="0.3" fill="#262537" x="35" y="22" width="1" height="2"></rect>
                <rect id="Rectangle-60-Copy-4" fill-opacity="0.3" fill="#262537" x="27" y="22" width="1" height="2"></rect>
                <rect id="Rectangle-60-Copy-18" fill-opacity="0.3" fill="#262537" x="21" y="26" width="1" height="2"></rect>
                <rect id="Rectangle-60-Copy-30" fill-opacity="0.3" fill="#262537" x="33" y="26" width="1" height="2"></rect>
                <rect id="Rectangle-60-Copy-22" fill-opacity="0.3" fill="#262537" x="29" y="26" width="1" height="2"></rect>
                <rect id="Rectangle-60-Copy-31" fill-opacity="0.3" fill="#262537" x="41" y="26" width="1" height="2"></rect>
                <rect id="Rectangle-60-Copy-26" fill-opacity="0.3" fill="#262537" x="51" y="26" width="1" height="2"></rect>
                <rect id="Rectangle-60-Copy-9" fill-opacity="0.3" fill="#262537" x="37" y="22" width="1" height="2"></rect>
                <rect id="Rectangle-60-Copy-5" fill-opacity="0.3" fill="#262537" x="28" y="22" width="1" height="2"></rect>
                <rect id="Rectangle-60-Copy-15" fill-opacity="0.3" fill="#262537" x="39" y="22" width="1" height="2"></rect>
                <rect id="Rectangle-60-Copy-14" fill-opacity="0.3" fill="#262537" x="41" y="22" width="1" height="2"></rect>
                <rect id="Rectangle-60-Copy-13" fill-opacity="0.3" fill="#262537" x="43" y="22" width="1" height="2"></rect>
                <rect id="Rectangle-60-Copy-12" fill-opacity="0.3" fill="#262537" x="45" y="22" width="1" height="2"></rect>
                <rect id="Rectangle-60-Copy-11" fill-opacity="0.3" fill="#262537" x="46" y="22" width="1" height="2"></rect>
                <g id="Group-43" transform="translate(11.000000, 11.000000)">
                    <g id="Star-Copy-4">
                        <use fill="black" fill-opacity="1" filter="url(#filter-12)" xlink:href="#path-11"></use>
                        <use stroke="#FFFFFF" stroke-width="0.5" fill="#262537" fill-rule="evenodd" xlink:href="#path-11"></use>
                    </g>
                    <path d="M3.068,1.89995117 L2.616,1.89995117 C2.556,2.32795117 2.192,2.46395117 1.796,2.45595117 L1.796,2.88395117 L2.5,2.88395117 L2.5,4.69995117 L3.068,4.69995117 L3.068,1.89995117 Z M3.40799999,3.28795117 C3.40799999,4.40395117 3.87999999,4.75595117 4.43199999,4.75595117 C4.99199999,4.75595117 5.46399999,4.40395117 5.46399999,3.28795117 C5.46399999,2.19595117 4.99199999,1.84395117 4.43199999,1.84395117 C3.87999999,1.84395117 3.40799999,2.19595117 3.40799999,3.28795117 Z M3.97599999,3.28795117 C3.97599999,2.99595117 3.97599999,2.31195117 4.43199999,2.31195117 C4.89599999,2.31195117 4.89599999,2.99595117 4.89599999,3.28795117 C4.89599999,3.60395117 4.89599999,4.28795117 4.43199999,4.28795117 C3.97599999,4.28795117 3.97599999,3.60395117 3.97599999,3.28795117 Z M5.23199999,3.28795117 C5.23199999,4.40395117 5.70399999,4.75595117 6.25599999,4.75595117 C6.81599999,4.75595117 7.28799999,4.40395117 7.28799999,3.28795117 C7.28799999,2.19595117 6.81599999,1.84395117 6.25599999,1.84395117 C5.70399999,1.84395117 5.23199999,2.19595117 5.23199999,3.28795117 Z M5.79999999,3.28795117 C5.79999999,2.99595117 5.79999999,2.31195117 6.25599999,2.31195117 C6.71999999,2.31195117 6.71999999,2.99595117 6.71999999,3.28795117 C6.71999999,3.60395117 6.71999999,4.28795117 6.25599999,4.28795117 C5.79999999,4.28795117 5.79999999,3.60395117 5.79999999,3.28795117 Z" id="100" fill="#FFFFFF"></path>
                </g>
                <g id="Group-43-Copy" transform="translate(47.000000, 11.000000)">
                    <g id="Star-Copy-4">
                        <use fill="black" fill-opacity="1" filter="url(#filter-14)" xlink:href="#path-13"></use>
                        <use stroke="#FFFFFF" stroke-width="0.5" fill="#262537" fill-rule="evenodd" xlink:href="#path-13"></use>
                    </g>
                    <path d="M3.068,1.89995117 L2.616,1.89995117 C2.556,2.32795117 2.192,2.46395117 1.796,2.45595117 L1.796,2.88395117 L2.5,2.88395117 L2.5,4.69995117 L3.068,4.69995117 L3.068,1.89995117 Z M3.40799999,3.28795117 C3.40799999,4.40395117 3.87999999,4.75595117 4.43199999,4.75595117 C4.99199999,4.75595117 5.46399999,4.40395117 5.46399999,3.28795117 C5.46399999,2.19595117 4.99199999,1.84395117 4.43199999,1.84395117 C3.87999999,1.84395117 3.40799999,2.19595117 3.40799999,3.28795117 Z M3.97599999,3.28795117 C3.97599999,2.99595117 3.97599999,2.31195117 4.43199999,2.31195117 C4.89599999,2.31195117 4.89599999,2.99595117 4.89599999,3.28795117 C4.89599999,3.60395117 4.89599999,4.28795117 4.43199999,4.28795117 C3.97599999,4.28795117 3.97599999,3.60395117 3.97599999,3.28795117 Z M5.23199999,3.28795117 C5.23199999,4.40395117 5.70399999,4.75595117 6.25599999,4.75595117 C6.81599999,4.75595117 7.28799999,4.40395117 7.28799999,3.28795117 C7.28799999,2.19595117 6.81599999,1.84395117 6.25599999,1.84395117 C5.70399999,1.84395117 5.23199999,2.19595117 5.23199999,3.28795117 Z M5.79999999,3.28795117 C5.79999999,2.99595117 5.79999999,2.31195117 6.25599999,2.31195117 C6.71999999,2.31195117 6.71999999,2.99595117 6.71999999,3.28795117 C6.71999999,3.60395117 6.71999999,4.28795117 6.25599999,4.28795117 C5.79999999,4.28795117 5.79999999,3.60395117 5.79999999,3.28795117 Z" id="100" fill="#FFFFFF"></path>
                </g>
                <g id="Star-Copy-4">
                    <use fill="black" fill-opacity="1" filter="url(#filter-16)" xlink:href="#path-15"></use>
                    <use stroke="#FFFFFF" stroke-width="0.5" fill="#262537" fill-rule="evenodd" xlink:href="#path-15"></use>
                </g>
                <path d="M36.1218792,37.5860177 C35.9680261,37.957452 36.0387406,38.2811134 36.3340249,38.5570115 C36.1018251,38.8703963 35.8417689,39.1274408 35.5538492,39.3281533 C35.4845529,39.248254 35.3843597,39.1811554 35.2532647,39.126854 C35.0238493,39.031827 34.8009971,39.0291097 34.5847021,39.1187021 C34.2139108,39.2722891 34.0348504,39.5500844 34.047516,39.9520969 C33.7020007,40.0137622 33.3363553,40.0158916 32.9505689,39.9584849 C32.964277,39.5545979 32.7854165,39.275732 32.4139823,39.1218789 C32.042548,38.9680258 31.7188866,39.0387403 31.4429885,39.3340246 C31.1296036,39.1018251 30.872559,38.8417691 30.6718467,38.5538489 C30.9650684,38.2785391 31.0348846,37.9554933 30.8812979,37.5847018 C30.7917056,37.3684068 30.632204,37.212748 30.4027885,37.117721 C30.2716939,37.0634198 30.1533999,37.0400182 30.0479031,37.0475157 C29.9862378,36.7020004 29.9841084,36.336355 30.0415151,35.9505686 C30.4454021,35.9642768 30.724268,35.7854163 30.8781211,35.413982 C31.0319742,35.0425477 30.9612597,34.7188863 30.6659754,34.4429882 C30.8981749,34.1296033 31.1582309,33.8725587 31.4461511,33.6718465 C31.515447,33.7517455 31.615641,33.8188445 31.7467356,33.8731457 C31.9761511,33.9681727 32.1990032,33.97089 32.4152982,33.8812977 C32.7860894,33.7277109 32.96515,33.449915 32.9524843,33.0479029 C33.2979994,32.986238 33.6636448,32.9841084 34.0494314,33.0415149 C34.0357232,33.4454018 34.2145837,33.7242677 34.586018,33.8781208 C34.9574523,34.0319739 35.2811137,33.9612594 35.5570118,33.6659751 C35.8703965,33.8981749 36.1274411,34.1582311 36.3281535,34.4461508 C36.034932,34.7214603 35.9651156,35.0445067 36.1187023,35.4152979 C36.2082947,35.6315929 36.3677964,35.7872517 36.5972118,35.8822787 C36.7283068,35.93658 36.8466,35.9599814 36.9520971,35.952484 C37.013762,36.2979991 37.0158916,36.6636446 36.9584851,37.0494311 C36.5545982,37.035723 36.2757323,37.2145835 36.1218792,37.5860177 Z M32.973378,37.817727 C33.3338884,37.9670553 33.6956717,37.9665255 34.0587386,37.8161383 C34.421804,37.6657516 34.6779981,37.4103069 34.8273264,37.0497964 C34.9766547,36.6892859 34.9761249,36.3275026 34.8257383,35.9644372 C34.6753511,35.6013703 34.4199063,35.3451763 34.0593958,35.1958479 C33.6988854,35.0465196 33.337102,35.0470494 32.9740352,35.1974367 C32.6109698,35.3478233 32.3547757,35.6032681 32.2054474,35.9637785 C32.056119,36.324289 32.0566489,36.6860723 32.2070355,37.0491377 C32.3574227,37.4122046 32.6128675,37.6683987 32.973378,37.817727 Z" id="Page-1" fill="#FFFFFF"></path>
            </g>
        </g>
    </g>
</svg>