<?xml version="1.0" encoding="UTF-8"?>
<svg width="110px" height="110px" viewBox="0 0 110 110" version="1.1" xmlns="http://www.w3.org/2000/svg" xmlns:xlink="http://www.w3.org/1999/xlink">
    <!-- Generator: Sketch 41 (35326) - http://www.bohemiancoding.com/sketch -->
    <title>catalogos/tipos-notas-credito</title>
    <desc>Created with Sketch.</desc>
    <defs>
        <circle id="path-1" cx="55" cy="55" r="55"></circle>
        <mask id="mask-2" maskContentUnits="userSpaceOnUse" maskUnits="objectBoundingBox" x="0" y="0" width="110" height="110" fill="white">
            <use xlink:href="#path-1"></use>
        </mask>
        <rect id="path-3" x="0" y="0" width="39" height="53"></rect>
        <filter x="-50%" y="-50%" width="200%" height="200%" filterUnits="objectBoundingBox" id="filter-4">
            <feOffset dx="2" dy="2" in="SourceAlpha" result="shadowOffsetOuter1"></feOffset>
            <feColorMatrix values="0 0 0 0 0   0 0 0 0 0   0 0 0 0 0  0 0 0 0.1 0" type="matrix" in="shadowOffsetOuter1"></feColorMatrix>
        </filter>
        <rect id="path-5" x="0" y="0" width="43" height="27"></rect>
        <filter x="-50%" y="-50%" width="200%" height="200%" filterUnits="objectBoundingBox" id="filter-6">
            <feOffset dx="2" dy="2" in="SourceAlpha" result="shadowOffsetOuter1"></feOffset>
            <feColorMatrix values="0 0 0 0 0   0 0 0 0 0   0 0 0 0 0  0 0 0 0.1 0" type="matrix" in="shadowOffsetOuter1"></feColorMatrix>
        </filter>
    </defs>
    <g id="IMM-desktop" stroke="none" stroke-width="1" fill="none" fill-rule="evenodd">
        <g id="catalogos/tipos-notas-credito">
            <use id="Oval-4" stroke="#CCCCCC" mask="url(#mask-2)" stroke-width="4" fill="#FFFFFF" xlink:href="#path-1"></use>
            <circle id="Oval-4-Copy" fill="#C2E0D7" cx="55" cy="55" r="50"></circle>
            <g id="Group-60" transform="translate(24.000000, 26.000000)">
                <g id="Rectangle-69">
                    <use fill="black" fill-opacity="1" filter="url(#filter-4)" xlink:href="#path-3"></use>
                    <use fill="#FFFFFF" fill-rule="evenodd" xlink:href="#path-3"></use>
                </g>
                <rect id="Rectangle-40-Copy" fill="#A99985" opacity="0.5" x="3" y="13" width="33" height="2"></rect>
                <rect id="Rectangle-40-Copy-15" fill="#A99985" opacity="0.5" x="3" y="9" width="33" height="2"></rect>
                <rect id="Rectangle-40-Copy-17" fill="#A99985" opacity="0.5" x="26" y="4" width="10" height="2"></rect>
                <g id="Group-39" transform="translate(3.000000, 19.000000)" fill="#A99985">
                    <rect id="Rectangle-40-Copy-2" x="0" y="0" width="33" height="6"></rect>
                    <rect id="Rectangle-40-Copy-10" x="0" y="0" width="1" height="30"></rect>
                    <rect id="Rectangle-40-Copy-11" x="5" y="0" width="1" height="30"></rect>
                    <rect id="Rectangle-40-Copy-12" x="18" y="0" width="1" height="30"></rect>
                    <rect id="Rectangle-40-Copy-13" x="24" y="0" width="1" height="30"></rect>
                    <rect id="Rectangle-40-Copy-14" x="32" y="0" width="1" height="30"></rect>
                    <rect id="Rectangle-40-Copy-3" x="0" y="9" width="33" height="1"></rect>
                    <rect id="Rectangle-40-Copy-5" x="0" y="13" width="33" height="1"></rect>
                    <rect id="Rectangle-40-Copy-6" x="0" y="17" width="33" height="1"></rect>
                    <rect id="Rectangle-40-Copy-7" x="0" y="21" width="33" height="1"></rect>
                    <rect id="Rectangle-40-Copy-8" x="0" y="25" width="33" height="1"></rect>
                    <rect id="Rectangle-40-Copy-9" x="0" y="29" width="33" height="1"></rect>
                </g>
            </g>
            <g id="Group-61" transform="translate(44.000000, 58.000000)">
                <g id="Rectangle-69">
                    <use fill="black" fill-opacity="1" filter="url(#filter-6)" xlink:href="#path-5"></use>
                    <use fill="#FFFFFF" fill-rule="evenodd" xlink:href="#path-5"></use>
                </g>
                <rect id="Rectangle-40-Copy" fill="#9A85A9" opacity="0.5" x="13" y="3" width="15" height="2"></rect>
                <rect id="Rectangle-40-Copy-15" fill="#9A85A9" opacity="0.5" x="3" y="3" width="8" height="2"></rect>
                <rect id="Rectangle-40-Copy-16" fill="#9A85A9" opacity="0.5" x="32" y="3" width="8" height="2"></rect>
                <rect id="Rectangle-40-Copy-2" fill="#9A85A9" x="3" y="7" width="37" height="6"></rect>
                <rect id="Rectangle-40-Copy-10" fill="#9A85A9" x="3" y="7" width="1" height="18"></rect>
                <rect id="Rectangle-40-Copy-11" fill="#9A85A9" x="8" y="7" width="1" height="18"></rect>
                <rect id="Rectangle-40-Copy-12" fill="#9A85A9" x="27" y="7" width="1" height="18"></rect>
                <rect id="Rectangle-40-Copy-13" fill="#9A85A9" x="33" y="7" width="1" height="18"></rect>
                <rect id="Rectangle-40-Copy-14" fill="#9A85A9" x="39" y="7" width="1" height="18"></rect>
                <rect id="Rectangle-40-Copy-3" fill="#9A85A9" x="3" y="16" width="37" height="1"></rect>
                <rect id="Rectangle-40-Copy-5" fill="#9A85A9" x="3" y="20" width="37" height="1"></rect>
                <rect id="Rectangle-40-Copy-6" fill="#9A85A9" x="3" y="24" width="37" height="1"></rect>
            </g>
        </g>
    </g>
</svg>